<?xml version="1.0" standalone="no"?>
<!DOCTYPE svg PUBLIC "-//W3C//DTD SVG 20010904//EN"
 "http://www.w3.org/TR/2001/REC-SVG-20010904/DTD/svg10.dtd">
<svg version="1.0" xmlns="http://www.w3.org/2000/svg"
 width="2449.000000pt" height="2449.000000pt" viewBox="0 0 2449.000000 2449.000000"
 preserveAspectRatio="xMidYMid meet">
<metadata>
Created by potrace 1.16, written by Peter Selinger 2001-2019
</metadata>
<g transform="translate(0.000000,2449.000000) scale(0.100000,-0.100000)"
fill="#000000" stroke="none">
<path d="M11600 24479 c-3072 -163 -5932 -1452 -8090 -3645 -1890 -1922 -3085
-4384 -3419 -7049 -66 -523 -91 -954 -91 -1540 0 -675 32 -1135 120 -1760 450
-3164 2152 -6049 4720 -8001 1710 -1300 3733 -2126 5865 -2393 574 -72 657
-76 1540 -76 850 0 886 1 1370 56 3452 385 6572 2218 8602 5054 1299 1815
2072 3946 2243 6185 32 419 41 1153 20 1560 -162 3089 -1447 5947 -3646 8110
-2072 2037 -4759 3259 -7654 3480 -397 30 -1194 40 -1580 19z m1075 -169
c1765 -69 3408 -487 4950 -1257 2193 -1096 3981 -2808 5184 -4963 187 -334
434 -847 596 -1236 900 -2161 1143 -4601 689 -6929 -345 -1767 -1082 -3432
-2163 -4885 -604 -811 -1329 -1564 -2121 -2201 -1057 -850 -2246 -1516 -3517
-1970 -2044 -729 -4265 -890 -6409 -464 -1356 269 -2636 763 -3831 1477 -1560
933 -2889 2206 -3896 3733 -925 1405 -1547 2987 -1821 4640 -113 679 -160
1258 -160 1980 0 446 8 660 40 1035 190 2250 996 4370 2358 6200 606 814 1371
1600 2181 2241 875 693 1843 1262 2881 1694 1564 652 3346 971 5039 905z"/>
<path d="M11205 23293 c-148 -8 -272 -17 -274 -19 -7 -6 92 -1879 99 -1887 7
-7 600 19 607 27 2 2 -1 77 -7 167 -5 90 -10 191 -10 224 l0 60 145 -218 145
-217 53 0 c68 0 661 31 665 35 2 2 -79 133 -180 292 -102 158 -188 293 -191
300 -4 7 13 33 40 61 61 64 107 140 141 234 24 67 27 86 27 218 0 165 -14 231
-70 345 -90 184 -245 304 -470 365 -107 29 -355 34 -720 13z m553 -535 c64
-33 96 -90 96 -173 -1 -77 -22 -118 -81 -155 -41 -26 -118 -50 -162 -50 -22 0
-26 34 -37 269 l-7 144 72 -5 c48 -4 87 -13 119 -30z"/>
<path d="M13575 23273 c-413 -49 -739 -310 -858 -688 -115 -366 -14 -765 260
-1025 130 -124 269 -201 443 -248 81 -21 117 -25 245 -25 131 0 163 3 249 26
379 101 660 402 732 784 22 118 15 325 -15 437 -27 102 -105 264 -164 342 -97
127 -250 250 -390 314 -145 65 -357 101 -502 83z m196 -619 c144 -42 249 -159
279 -311 32 -162 -61 -338 -218 -415 -62 -31 -74 -33 -167 -33 -89 0 -106 3
-157 28 -202 99 -286 324 -195 520 81 172 278 264 458 211z"/>
<path d="M9825 23059 c-73 -10 -724 -155 -733 -164 -5 -4 405 -1829 414 -1846
6 -10 588 127 592 139 2 7 -17 105 -43 218 -26 113 -45 207 -43 210 2 2 44 15
94 29 123 36 295 122 376 189 157 130 228 284 228 492 0 271 -112 507 -298
631 -142 94 -356 131 -587 102z m155 -541 c113 -58 140 -261 45 -337 -28 -21
-123 -56 -131 -48 -3 3 -23 83 -45 178 -21 96 -41 184 -44 196 -4 18 0 22 22
26 69 10 111 6 153 -15z"/>
<path d="M15245 22948 c-3 -7 -153 -404 -335 -882 -181 -478 -330 -872 -330
-875 0 -7 570 -225 574 -220 1 2 54 140 116 306 63 166 117 299 121 295 3 -4
39 -148 80 -319 41 -172 77 -313 81 -313 4 0 128 85 277 189 l270 189 -29 -76
c-15 -42 -67 -178 -114 -302 -47 -124 -86 -230 -86 -236 0 -13 562 -227 571
-217 8 10 669 1751 669 1763 0 5 -42 24 -92 44 -51 19 -157 60 -235 90 l-142
54 -353 -248 c-194 -137 -356 -246 -359 -242 -3 4 -50 194 -104 422 l-98 415
-231 88 c-127 48 -235 87 -239 87 -4 0 -10 -6 -12 -12z"/>
<path d="M7830 22433 c-162 -79 -296 -146 -298 -148 -1 -1 -7 -100 -11 -219
-5 -120 -11 -219 -13 -221 -2 -2 -80 51 -173 117 -94 66 -175 122 -181 124
-12 6 -614 -285 -614 -297 0 -4 226 -166 502 -360 l501 -353 178 -363 c98
-200 181 -363 185 -363 14 0 544 264 544 271 0 4 -80 172 -179 373 l-179 364
24 584 c27 676 26 638 17 637 -5 0 -141 -66 -303 -146z"/>
<path d="M17656 21675 c-409 -85 -704 -375 -793 -779 -20 -94 -20 -308 0 -402
69 -311 259 -555 542 -695 157 -78 227 -92 435 -93 205 0 273 14 429 90 120
57 198 113 287 205 128 133 211 283 256 466 32 131 30 341 -5 473 -48 185
-141 344 -274 471 -130 124 -281 209 -444 250 -110 27 -333 35 -433 14z m308
-612 c103 -36 189 -113 234 -211 23 -49 27 -70 27 -157 0 -88 -3 -107 -27
-157 -75 -160 -259 -260 -420 -228 -264 52 -401 319 -284 555 88 178 288 263
470 198z"/>
<path d="M5864 21315 c-175 -119 -259 -181 -258 -193 1 -17 1039 -1555 1053
-1560 11 -4 956 637 956 648 0 5 -61 99 -135 209 -98 146 -140 200 -152 197
-9 -2 -107 -65 -218 -141 -111 -75 -205 -133 -210 -129 -4 5 -180 263 -390
574 -211 311 -384 566 -385 567 -1 2 -118 -76 -261 -172z"/>
<path d="M19339 20680 c-30 -33 -107 -115 -171 -183 l-118 -124 98 -95 c53
-53 110 -107 126 -120 l29 -24 -408 -430 c-224 -236 -441 -463 -482 -505 l-75
-76 228 -217 c125 -119 231 -216 235 -216 4 0 217 219 472 488 255 268 470
492 478 499 12 9 37 -10 134 -102 66 -63 125 -113 131 -112 11 2 336 341 342
356 2 7 -951 921 -961 921 -2 0 -28 -27 -58 -60z"/>
<path d="M4560 20240 c-124 -115 -225 -215 -225 -222 0 -18 1268 -1387 1283
-1385 7 1 201 177 433 391 l420 389 -29 31 c-16 17 -91 99 -167 181 -77 83
-145 150 -151 150 -7 0 -94 -75 -194 -167 -99 -93 -184 -168 -188 -168 -4 0
-216 227 -472 504 -256 278 -469 505 -475 505 -5 0 -111 -94 -235 -209z"/>
<path d="M11965 20353 c-880 -35 -1705 -196 -2503 -489 -1626 -598 -3006
-1683 -3966 -3118 -673 -1005 -1108 -2138 -1281 -3339 -58 -408 -79 -709 -79
-1162 0 -573 41 -1012 145 -1550 522 -2712 2414 -4987 4989 -6000 1676 -660
3528 -742 5295 -233 1008 289 2024 831 2852 1519 397 331 810 749 1130 1144
993 1225 1606 2707 1768 4275 55 537 55 1145 -1 1690 -159 1566 -788 3075
-1790 4295 -251 307 -647 716 -924 957 -994 863 -2100 1446 -3351 1767 -713
183 -1557 273 -2284 244z m195 -3508 l0 -1225 -1270 0 -1270 0 0 -525 0 -525
2828 0 c1690 0 2907 -4 3027 -10 500 -24 927 -86 1350 -195 324 -83 589 -181
865 -321 650 -328 1100 -771 1409 -1392 237 -474 344 -992 344 -1667 0 -697
-109 -1205 -365 -1708 -305 -599 -759 -1039 -1403 -1360 -628 -313 -1397 -482
-2342 -513 l-203 -7 0 -1369 0 -1368 -1505 0 -1505 0 0 3785 0 3785 -1250 0
-1250 0 0 -1995 0 -1995 -1500 0 -1500 0 0 4915 0 4915 2770 0 2770 0 0 -1225z"/>
<path d="M15130 10985 l0 -1058 163 7 c191 9 281 19 396 47 284 70 465 214
582 464 141 301 141 779 0 1080 -117 250 -298 394 -582 464 -115 28 -205 38
-396 47 l-163 7 0 -1058z"/>
<path d="M3787 19429 c-104 -132 -187 -242 -185 -243 291 -222 956 -748 982
-776 65 -72 56 -148 -27 -230 -48 -49 -91 -59 -153 -35 -28 10 -228 159 -526
392 -334 260 -486 373 -495 367 -7 -5 -94 -112 -193 -239 l-179 -230 24 -21
c43 -39 927 -726 991 -771 76 -53 168 -96 255 -118 97 -26 271 -17 362 18 257
99 520 413 583 696 12 53 15 101 12 175 -9 165 -66 290 -193 420 -64 65 -1043
836 -1062 836 -4 0 -93 -108 -196 -241z"/>
<path d="M19840 18985 c-404 -322 -735 -591 -735 -598 0 -18 686 -886 701
-886 11 -1 387 294 391 307 2 4 -69 97 -157 207 -88 110 -159 203 -160 207 0
6 146 123 154 123 2 0 72 -85 156 -190 84 -104 155 -190 159 -190 9 0 371 287
371 295 0 4 -67 92 -150 196 -82 104 -150 191 -150 195 0 5 112 97 137 112 8
5 65 -59 168 -188 86 -108 160 -195 165 -193 14 5 389 303 390 309 0 8 -688
874 -698 876 -4 1 -338 -261 -742 -582z"/>
<path d="M20778 17772 c-455 -246 -828 -452 -828 -457 0 -19 291 -547 349
-633 173 -256 367 -410 596 -473 173 -48 405 -21 599 70 292 136 479 338 548
590 17 61 21 104 21 221 -1 256 -56 415 -297 860 -79 145 -148 265 -152 267
-5 1 -381 -199 -836 -445z m708 -512 c42 -166 -28 -309 -196 -402 -100 -55
-161 -71 -244 -66 -55 4 -85 12 -125 33 -55 31 -143 118 -179 178 l-21 36 212
115 c117 63 275 149 352 190 l140 76 22 -48 c12 -26 30 -76 39 -112z"/>
<path d="M2517 17568 c-147 -270 -266 -492 -265 -493 12 -10 1658 -905 1665
-905 14 0 296 531 287 540 -5 4 -144 81 -309 171 -165 89 -301 164 -303 165
-2 1 48 97 112 213 64 115 117 215 118 221 3 8 -412 244 -418 237 -1 -1 -55
-99 -119 -217 -65 -118 -119 -216 -120 -218 -1 -1 -41 19 -88 45 l-86 47 28
51 c83 146 211 385 211 392 0 9 -423 243 -437 243 -5 0 -129 -221 -276 -492z"/>
<path d="M21882 11019 c-42 -53 -65 -120 -70 -205 -7 -121 21 -185 97 -223
125 -64 228 -18 310 139 45 86 58 100 96 100 56 0 87 -59 65 -126 -7 -21 -30
-56 -52 -80 l-39 -42 54 -58 54 -57 40 40 c22 22 53 67 69 99 26 53 29 69 29
154 0 83 -3 102 -26 145 -32 63 -93 110 -161 125 -111 25 -185 -24 -254 -166
-54 -114 -83 -135 -124 -94 -29 29 -25 78 9 132 l29 46 -51 50 -52 50 -23 -29z"/>
<path d="M2441 10564 c-282 -51 -515 -95 -517 -96 -5 -5 73 -411 87 -448 29
-82 95 -156 169 -189 50 -23 141 -28 200 -11 97 27 177 114 187 205 l5 43 44
-33 c72 -55 177 -59 271 -11 98 50 142 126 143 246 1 88 -50 391 -65 389 -5
-1 -241 -43 -524 -95z m414 -207 c11 -106 -26 -162 -114 -174 -82 -11 -131 32
-154 134 l-14 58 116 21 c171 32 158 35 166 -39z m-415 -175 c1 -92 -53 -152
-138 -152 -85 0 -129 45 -157 161 -26 112 -35 102 128 130 l142 25 12 -60 c7
-34 12 -80 13 -104z"/>
<path d="M21781 10440 c-6 -28 -11 -58 -11 -65 0 -19 -22 -18 -142 4 l-96 18
-12 -66 c-6 -36 -13 -80 -16 -97 l-6 -31 114 -19 113 -20 0 -39 0 -40 70 -12
c39 -7 76 -11 83 -8 6 2 12 18 12 35 0 18 5 30 13 30 12 0 451 -76 493 -85 19
-4 22 3 38 92 9 53 15 97 14 98 -2 1 -115 21 -253 44 -137 24 -253 46 -257 50
-3 3 -2 32 4 64 6 32 8 60 6 63 -3 2 -31 9 -64 15 -32 5 -66 12 -76 15 -13 4
-19 -6 -27 -46z"/>
<path d="M21687 9953 c-44 -72 -62 -140 -62 -233 0 -73 4 -93 28 -142 72 -146
238 -231 405 -205 112 16 208 92 265 206 27 55 32 77 35 155 1 50 -1 96 -5
102 -4 6 -48 20 -96 31 -78 18 -87 18 -81 4 60 -146 -30 -301 -177 -301 -59 0
-137 39 -168 85 -34 50 -38 116 -11 187 12 33 34 68 51 83 35 29 38 26 -77 53
l-81 19 -26 -44z"/>
<path d="M2465 9644 c-170 -44 -322 -84 -336 -87 l-26 -7 25 -92 c13 -51 25
-94 26 -95 1 -1 87 21 191 48 216 57 262 59 319 16 40 -31 72 -111 62 -159 -6
-29 -6 -30 32 -24 20 3 61 8 90 12 l52 6 0 39 c0 79 -50 156 -125 190 -42 19
-39 24 24 38 l26 6 -25 95 -25 95 -310 -81z"/>
<path d="M21505 9220 c-16 -49 -27 -91 -24 -93 2 -2 96 -34 209 -70 113 -37
212 -73 220 -80 73 -58 65 -181 -15 -233 -42 -28 -97 -19 -308 49 -108 36
-199 62 -201 58 -4 -7 -56 -170 -56 -176 0 -6 407 -135 464 -146 151 -31 288
93 332 301 27 128 2 223 -74 290 -40 36 -72 49 -275 115 -127 41 -233 75 -237
75 -3 0 -19 -40 -35 -90z"/>
<path d="M2595 9103 c-78 -28 -138 -68 -188 -123 -55 -61 -81 -132 -81 -220 0
-122 52 -218 141 -261 l47 -23 -41 -13 -40 -14 31 -93 31 -92 110 37 c366 124
531 181 537 188 5 4 -5 45 -21 91 -30 90 -35 94 -89 76 -23 -8 -23 -7 -8 16
63 95 27 263 -78 361 -81 77 -242 109 -351 70z m190 -202 c111 -50 151 -199
78 -288 -96 -119 -274 -102 -334 32 -49 107 1 219 117 260 53 19 91 18 139 -4z"/>
<path d="M20820 8676 c0 -7 -15 -48 -34 -91 l-35 -79 260 -111 260 -112 -39
-11 c-59 -18 -115 -72 -148 -144 -24 -53 -29 -76 -29 -143 0 -67 5 -89 27
-135 35 -71 106 -140 188 -182 61 -31 71 -33 170 -33 95 0 110 3 157 27 134
71 212 216 179 335 -7 26 -17 56 -21 66 -7 17 -6 17 29 1 22 -11 39 -14 44 -8
13 14 75 164 71 169 -3 3 -862 373 -1046 450 -26 11 -33 11 -33 1z m705 -483
c51 -26 85 -65 100 -116 16 -53 11 -93 -15 -147 -22 -44 -45 -65 -93 -85 -83
-34 -193 0 -244 76 -67 101 -12 252 106 290 33 10 107 1 146 -18z"/>
<path d="M2905 8179 c-170 -77 -311 -142 -313 -143 -2 -3 66 -163 75 -175 1
-2 89 35 195 83 203 90 238 99 302 72 66 -28 99 -131 61 -190 -19 -28 -141
-92 -341 -178 l-101 -44 40 -91 39 -90 177 79 c278 126 296 135 339 182 62 67
74 127 46 228 -22 78 -85 150 -156 176 l-50 19 41 16 c22 9 41 19 41 21 0 7
-79 176 -82 175 -2 0 -142 -63 -313 -140z"/>
<path d="M20923 7562 c-73 -26 -126 -64 -172 -122 -179 -226 -131 -501 107
-613 59 -28 78 -32 152 -32 73 0 94 4 148 29 156 72 273 289 243 451 -32 171
-174 294 -350 302 -56 3 -90 -1 -128 -15z m182 -201 c112 -51 147 -189 74
-291 -76 -105 -228 -104 -313 2 -54 69 -47 186 17 249 60 60 145 75 222 40z"/>
<path d="M3345 7436 c-97 -31 -197 -114 -244 -201 -23 -44 -26 -61 -26 -150 0
-95 2 -103 34 -163 38 -71 89 -113 157 -132 l45 -13 -33 -20 c-18 -10 -34 -21
-36 -22 -2 -2 18 -41 44 -87 l48 -84 495 281 c273 154 502 284 509 288 10 7 4
24 -24 75 -20 37 -42 75 -49 84 -10 15 -36 3 -250 -118 -131 -74 -240 -133
-242 -131 -2 2 2 18 8 36 42 119 -59 299 -196 350 -64 24 -176 27 -240 7z
m182 -197 c38 -14 92 -67 109 -108 76 -181 -156 -350 -307 -224 -113 95 -79
276 61 332 34 13 102 13 137 0z"/>
<path d="M20473 6938 c-58 -64 -79 -161 -49 -233 17 -40 14 -42 -22 -17 -15
10 -32 22 -38 25 -14 8 -119 -153 -107 -163 36 -31 577 -372 580 -365 2 6 25
43 52 84 l49 74 -111 71 c-62 40 -125 80 -142 91 -96 61 -145 122 -145 180 0
40 27 95 65 130 l34 33 -67 56 c-36 31 -69 56 -72 56 -4 0 -16 -10 -27 -22z"/>
<path d="M3832 6632 c-99 -36 -192 -114 -234 -197 -25 -48 -40 -142 -33 -195
18 -127 130 -278 237 -318 67 -25 133 -34 175 -25 l32 8 -39 83 c-36 77 -41
82 -70 82 -74 0 -154 74 -167 154 -7 45 18 114 52 146 22 21 27 22 39 9 8 -8
71 -97 141 -199 70 -102 132 -191 139 -198 11 -11 22 -6 65 28 175 139 187
359 29 526 -74 79 -133 107 -233 111 -60 3 -93 -1 -133 -15z m208 -162 c41
-11 94 -61 109 -103 17 -44 13 -99 -9 -134 -11 -18 -23 -33 -28 -33 -8 0 -182
244 -182 255 0 7 41 24 60 24 8 1 31 -4 50 -9z"/>
<path d="M19839 6537 c-92 -35 -125 -66 -278 -267 -83 -110 -107 -148 -98
-156 31 -28 839 -635 842 -632 2 2 31 38 64 82 l61 78 -97 75 c-54 41 -123 93
-155 116 -32 23 -58 45 -58 49 0 5 27 44 59 88 136 182 139 328 12 463 -70 74
-145 109 -241 114 -47 2 -89 -2 -111 -10z m147 -213 c70 -33 105 -112 81 -182
-15 -44 -83 -142 -98 -142 -6 0 -64 41 -129 90 l-120 91 41 55 c72 94 149 124
225 88z"/>
<path d="M4363 5941 c-130 -48 -226 -152 -258 -280 -48 -185 84 -391 250 -391
l50 0 -38 -31 -37 -30 62 -74 c34 -41 66 -71 72 -67 14 8 844 698 870 723 18
17 17 19 -43 92 l-62 75 -213 -178 -212 -178 0 62 c0 106 -69 207 -179 264
-69 35 -187 41 -262 13z m211 -204 c22 -12 53 -39 70 -60 25 -31 31 -48 33
-100 3 -51 0 -69 -19 -102 -85 -145 -289 -136 -353 17 -65 158 123 329 269
245z"/>
<path d="M18955 5708 l-66 -72 43 -42 c24 -23 216 -203 428 -399 l384 -358 66
73 66 72 -55 52 c-31 29 -223 208 -428 399 l-372 346 -66 -71z"/>
<path d="M19041 5102 l-72 -65 30 -31 30 -31 -58 -1 c-107 -1 -204 -74 -259
-192 -67 -146 -2 -340 148 -445 72 -50 145 -71 229 -65 82 6 146 34 206 89 56
52 82 99 91 168 l7 52 26 -25 27 -25 72 67 72 67 -162 170 c-89 94 -196 206
-238 251 l-77 80 -72 -64z m119 -264 c151 -77 155 -274 7 -350 -60 -30 -144
-22 -194 18 -50 41 -71 71 -81 119 -19 87 28 177 113 216 53 25 101 24 155 -3z"/>
<path d="M5358 4888 l-526 -240 81 -74 c45 -41 85 -74 89 -74 4 0 55 22 114
50 l106 50 159 -147 c116 -106 158 -150 154 -162 -4 -9 -22 -60 -40 -113 l-34
-98 52 -49 c29 -27 66 -60 84 -75 l31 -26 11 32 c6 18 93 264 193 547 l182
513 -60 54 c-32 29 -61 53 -64 53 -3 0 -242 -108 -532 -241z m326 -214 c-36
-99 -69 -182 -73 -186 -6 -7 -213 173 -219 190 -2 7 349 182 356 177 2 -2 -27
-83 -64 -181z"/>
<path d="M18295 4450 c-27 -11 -66 -33 -87 -50 -41 -34 -88 -120 -88 -161 0
-40 -15 -44 -40 -9 -19 27 -23 28 -36 15 -8 -8 -42 -35 -75 -60 -32 -26 -59
-48 -59 -51 0 -3 95 -127 211 -275 136 -174 215 -267 222 -262 7 4 42 30 78
58 l67 52 -121 154 c-136 175 -162 222 -154 283 8 60 70 116 128 116 59 0 88
-26 215 -187 59 -76 118 -150 130 -165 l22 -27 76 60 77 60 -60 77 c-221 284
-258 328 -304 356 -62 38 -132 44 -202 16z"/>
<path d="M5864 3960 c-170 -232 -310 -424 -311 -428 -1 -4 32 -32 74 -63 l77
-57 101 137 c55 75 116 158 135 185 l35 48 7 -45 c13 -93 69 -163 167 -213
154 -76 337 -17 444 144 105 158 100 313 -14 437 -65 70 -128 99 -216 100 -40
0 -73 1 -73 3 0 2 10 16 22 32 12 16 20 31 17 33 -73 55 -148 107 -151 107 -3
0 -144 -189 -314 -420z m506 91 c60 -40 90 -93 90 -157 0 -103 -79 -192 -179
-202 -126 -12 -235 113 -202 233 37 134 184 198 291 126z"/>
<path d="M17536 3896 c-290 -122 -376 -417 -182 -624 145 -155 354 -157 541
-4 179 146 192 386 30 547 -73 74 -130 98 -240 102 -78 3 -98 0 -149 -21z
m194 -181 c147 -75 143 -284 -7 -352 -89 -41 -180 -16 -237 65 -115 162 68
376 244 287z"/>
<path d="M16692 3854 c-51 -36 -65 -105 -32 -159 61 -98 210 -55 210 61 0 39
-5 51 -34 80 -28 28 -41 34 -78 34 -24 0 -54 -7 -66 -16z"/>
<path d="M6643 3392 l-272 -456 80 -48 c44 -27 84 -46 88 -43 5 2 57 86 116
185 59 99 112 183 116 186 5 3 9 -5 9 -17 0 -39 40 -107 87 -149 131 -115 328
-107 454 19 163 164 178 397 33 531 -85 78 -206 112 -289 80 l-27 -10 21 34
c12 18 21 36 21 40 0 6 -46 36 -120 78 l-45 26 -272 -456z m496 142 c124 -62
147 -210 47 -310 -71 -72 -152 -79 -241 -23 -132 84 -101 290 51 344 57 20 84
18 143 -11z"/>
<path d="M16415 3508 c-44 -22 -81 -42 -83 -43 -2 -2 20 -49 48 -104 28 -56
48 -106 46 -110 -3 -5 -19 -14 -35 -21 l-30 -12 36 -72 c19 -39 37 -72 38 -74
2 -2 17 4 34 13 18 9 35 14 39 11 4 -2 58 -108 121 -234 l115 -230 88 44 89
45 -121 234 -120 234 60 31 c33 17 60 33 60 35 0 3 -16 37 -35 75 l-35 70 -61
-31 c-34 -16 -62 -29 -64 -27 -1 2 -26 49 -54 106 -28 56 -52 102 -54 102 -1
-1 -38 -19 -82 -42z"/>
<path d="M16954 3531 c-16 -10 -54 -31 -85 -47 l-55 -29 162 -294 c89 -161
166 -297 172 -303 6 -6 35 4 86 32 42 23 78 45 80 49 3 4 -67 138 -156 297
-88 159 -163 295 -167 301 -5 9 -14 8 -37 -6z"/>
<path d="M7758 3297 c-97 -28 -180 -104 -236 -216 -33 -67 -36 -80 -36 -160 0
-74 4 -95 28 -148 67 -147 244 -232 371 -179 40 17 42 13 16 -30 l-19 -31 89
-43 c49 -24 90 -42 92 -39 8 9 298 622 295 623 -2 1 -42 20 -89 43 l-87 42
-18 -41 -18 -40 -13 45 c-37 126 -228 215 -375 174z m207 -205 c43 -21 65 -42
86 -84 60 -117 -24 -269 -156 -284 -72 -8 -150 33 -185 96 -92 168 85 357 255
272z"/>
<path d="M16038 3089 c-77 -11 -196 -67 -252 -119 -27 -25 -60 -70 -79 -109
-29 -60 -32 -74 -32 -156 1 -80 4 -97 33 -156 37 -77 110 -150 180 -181 66
-30 181 -35 257 -13 191 55 302 177 313 340 6 94 -11 160 -58 235 -79 121
-214 181 -362 159z m134 -208 c129 -88 114 -279 -27 -342 -185 -85 -359 146
-228 302 60 71 182 90 255 40z"/>
<path d="M9820 2491 c-73 -306 -133 -562 -134 -570 -1 -9 29 -21 92 -36 l92
-22 9 36 c52 201 262 1094 258 1098 -3 2 -45 15 -94 27 l-90 23 -133 -556z"/>
<path d="M8401 2679 c-68 -176 -122 -322 -120 -323 16 -14 173 -65 179 -59 4
4 33 76 65 158 87 229 114 269 196 289 35 8 115 -17 144 -44 l23 -22 42 74
c24 40 45 76 47 80 2 4 -18 19 -44 35 -63 37 -149 39 -207 5 -21 -13 -40 -21
-43 -18 -2 2 3 21 12 41 8 21 14 39 13 40 -6 5 -170 65 -176 65 -4 0 -63 -144
-131 -321z"/>
<path d="M15171 2773 c-54 -19 -124 -87 -142 -137 -15 -42 -19 -43 -44 -16
-44 49 -165 61 -251 25 -44 -18 -109 -79 -125 -117 l-13 -31 -10 37 c-6 21
-15 38 -19 38 -24 1 -177 -48 -177 -57 0 -5 42 -154 94 -330 107 -366 84 -334
213 -295 l71 21 -54 182 c-29 101 -56 201 -59 222 -19 120 100 210 183 140 35
-29 45 -56 113 -290 28 -99 53 -181 54 -182 2 -3 178 47 183 52 2 1 -22 90
-53 196 -60 211 -66 266 -35 317 31 51 111 69 158 36 39 -27 45 -44 156 -425
l16 -57 82 24 c46 13 88 26 94 28 11 4 -90 375 -132 485 -48 125 -172 180
-303 134z"/>
<path d="M10921 2755 c-86 -24 -154 -86 -180 -164 -25 -75 -8 -185 39 -251 11
-15 20 -32 20 -37 0 -4 -35 -24 -78 -45 -137 -65 -205 -160 -205 -287 1 -156
106 -269 280 -300 99 -18 236 11 338 73 l39 24 43 -64 c27 -39 52 -65 66 -68
12 -2 70 -11 129 -18 102 -13 107 -13 95 4 -7 10 -49 71 -94 137 l-81 118 46
36 c26 20 61 51 79 69 l31 33 -52 66 -52 66 -59 -55 c-94 -85 -84 -87 -169 35
l-74 108 61 32 c148 78 203 223 136 354 -55 110 -222 172 -358 134z m162 -156
c51 -23 67 -108 30 -158 -11 -14 -41 -38 -67 -54 -55 -34 -55 -34 -102 61 -24
48 -26 57 -15 92 6 22 21 46 34 55 25 18 86 20 120 4z m-94 -563 c59 -86 78
-123 71 -131 -21 -26 -115 -58 -170 -59 -72 -1 -118 25 -148 84 -26 52 -23 85
13 140 23 36 134 105 146 92 4 -4 43 -61 88 -126z"/>
<path d="M9133 2746 c-94 -30 -166 -98 -217 -205 -28 -60 -31 -75 -31 -166 0
-95 2 -103 34 -163 55 -100 129 -154 261 -188 115 -29 224 -4 318 73 l45 36
-84 43 -84 42 -30 -22 c-43 -31 -146 -30 -197 2 -42 26 -78 92 -78 143 0 67
-3 67 251 -11 128 -40 239 -74 245 -77 18 -7 39 85 38 172 0 91 -20 147 -74
208 -87 100 -271 152 -397 113z m227 -158 c47 -32 71 -68 77 -118 l6 -43 -29
7 c-76 19 -284 88 -284 94 0 11 62 68 80 75 40 14 118 6 150 -15z"/>
<path d="M12161 2663 l-64 -4 7 -232 c3 -128 9 -368 12 -534 l7 -303 36 0 c20
0 67 3 105 7 l69 6 -7 194 -6 193 27 0 c106 2 234 20 279 39 63 27 126 90 156
156 29 65 32 195 5 272 -21 61 -93 145 -146 173 -73 37 -224 47 -480 33z m356
-196 c99 -52 98 -210 -2 -269 -18 -10 -63 -20 -113 -24 l-82 -7 0 40 c0 22 -3
95 -7 163 l-6 123 89 -5 c56 -3 101 -11 121 -21z"/>
<path d="M13805 2447 c-84 -22 -142 -54 -193 -104 -197 -197 -114 -526 153
-610 22 -7 74 -13 116 -13 178 0 320 83 387 228 22 48 26 70 26 142 -1 154
-70 267 -201 332 -56 27 -78 32 -152 35 -47 1 -108 -3 -136 -10z m154 -172
c52 -11 109 -68 126 -130 57 -193 -170 -334 -317 -197 -81 76 -83 198 -3 278
41 41 105 67 145 59 8 -2 30 -7 49 -10z"/>
<path d="M13275 2367 c-56 -22 -76 -38 -104 -83 l-28 -44 -6 46 c-2 25 -7 47
-9 49 -5 5 -180 -14 -186 -20 -4 -4 58 -678 63 -683 4 -5 185 14 189 19 2 2
-5 87 -15 189 -19 192 -18 246 9 292 31 53 124 85 194 65 l27 -7 3 87 c2 51
-1 91 -7 95 -15 11 -96 8 -130 -5z"/>
</g>
</svg>
