<?xml version='1.0' encoding='utf8'?>
<svg xmlns="http://www.w3.org/2000/svg" version="1.0" width="800.000000pt" height="800.000000pt" viewBox="0 0 800.000000 800.000000" preserveAspectRatio="xMidYMid meet" fill="#ffffff" stroke="#ffffff">
<metadata fill="#ffffff" stroke="#ffffff">
Created by potrace 1.16, written by Peter Selinger 2001-2019
</metadata>
<g transform="translate(0.000000,800.000000) scale(0.100000,-0.100000)" fill="#ffffff" stroke="#ffffff">
<path d="M1 6138 c1 -1088 5 -1826 10 -1773 88 935 496 1803 1159 2465 666 665 1530 1071 2465 1159 53 5 -685 9 -1772 10 l-1863 1 1 -1862z" fill="#ffffff" stroke="#ffffff" />
<path d="M4365 7989 c1388 -132 2598 -962 3221 -2209 217 -435 357 -928 402 -1410 6 -59 10 611 11 1768 l1 1862 -1862 -1 c-1102 -1 -1826 -5 -1773 -10z" fill="#ffffff" stroke="#ffffff" />
<path d="M3730 7933 c-376 -35 -616 -81 -915 -174 -412 -129 -831 -345 -1181 -609 -277 -209 -489 -415 -703 -680 -470 -585 -749 -1248 -848 -2015 -22 -174 -25 -700 -5 -865 63 -516 188 -937 408 -1370 585 -1155 1685 -1940 2974 -2124 399 -57 897 -44 1290 34 780 156 1474 525 2031 1080 673 671 1070 1532 1150 2495 16 195 6 597 -20 790 -64 471 -187 871 -397 1285 -621 1226 -1819 2031 -3199 2149 -109 10 -500 13 -585 4z m215 -347 c64 -29 108 -84 125 -156 17 -72 1 -137 -52 -211 -9 -14 -1 -33 49 -110 l61 -94 -26 -6 c-15 -4 -69 -7 -119 -8 l-93 -1 -45 68 -46 67 2 -67 c1 -38 0 -70 -2 -72 -5 -5 -199 -18 -199 -14 -7 87 -30 530 -30 570 l0 57 93 4 c156 7 223 0 282 -27z m625 2 c125 -39 220 -171 220 -307 0 -90 -26 -155 -87 -221 -73 -80 -132 -105 -243 -104 -100 0 -156 22 -223 88 -64 62 -91 125 -95 223 -4 72 -1 89 23 140 72 158 237 232 405 181z m-1219 -63 c83 -30 137 -106 146 -207 11 -112 -47 -195 -165 -238 l-60 -22 14 -56 c21 -90 24 -86 -73 -106 -47 -10 -92 -20 -98 -22 -14 -6 -151 594 -139 606 14 12 233 58 285 59 26 1 66 -6 90 -14z m1715 -52 l73 -27 34 -139 33 -138 76 55 c43 30 95 67 116 81 l39 26 69 -26 c38 -14 73 -30 77 -34 7 -7 -196 -557 -212 -574 -7 -7 -166 47 -183 62 -4 4 8 47 27 96 19 48 33 90 32 92 -2 1 -39 -22 -83 -52 -43 -30 -81 -55 -84 -55 -3 0 -16 46 -29 103 l-24 102 -34 -90 c-19 -49 -38 -93 -42 -98 -12 -12 -186 57 -185 74 2 11 108 295 203 542 6 15 14 27 17 27 4 0 40 -12 80 -27z m-2410 -235 c-11 -275 -15 -249 48 -381 31 -65 56 -121 56 -123 0 -7 -162 -84 -175 -84 -6 0 -35 52 -65 115 l-53 115 -160 113 c-88 62 -162 118 -164 123 -2 6 41 31 94 56 l98 47 58 -40 57 -40 1 53 c0 29 4 62 8 72 5 14 174 112 199 115 2 1 1 -63 -2 -141z m3309 -182 c134 -61 210 -206 184 -349 -20 -114 -77 -190 -177 -239 -59 -29 -76 -33 -148 -32 -99 0 -170 31 -234 100 -65 70 -85 123 -85 224 0 73 4 93 28 142 79 160 270 229 432 154z m-3836 -221 c68 -102 126 -185 128 -185 2 0 30 17 61 38 31 21 62 42 68 45 11 7 113 -128 103 -137 -12 -10 -309 -206 -313 -206 -8 0 -339 492 -340 506 -1 12 148 125 163 124 3 -1 62 -84 130 -185z m4441 -279 l84 -86 -54 -55 c-30 -30 -59 -55 -64 -55 -6 0 -26 16 -46 35 l-35 35 -155 -164 -154 -164 -26 18 c-14 10 -49 43 -78 72 l-52 54 155 164 155 165 -39 39 -40 40 57 61 57 62 75 -68 c41 -37 113 -106 160 -153z m-4780 -113 l85 -92 60 54 c33 30 63 55 66 55 9 0 109 -108 109 -118 0 -8 -254 -246 -272 -254 -3 -2 -101 99 -217 224 l-211 227 53 49 c28 28 63 59 77 71 l25 20 70 -72 c39 -40 109 -113 155 -164z m2430 197 c339 -31 653 -119 950 -266 257 -127 458 -268 663 -464 237 -226 408 -464 556 -770 203 -422 292 -903 251 -1360 -74 -818 -497 -1536 -1170 -1985 -127 -85 -330 -196 -429 -235 -30 -12 -73 -29 -95 -40 -144 -65 -449 -136 -685 -160 -130 -13 -397 -13 -521 0 -753 79 -1423 458 -1865 1055 -110 149 -164 236 -244 395 -189 374 -280 759 -281 1186 0 616 203 1195 587 1669 356 438 864 762 1413 901 123 31 347 69 460 77 104 8 303 6 410 -3z m-2701 -380 c162 -126 191 -165 191 -254 0 -38 -8 -77 -20 -103 -24 -54 -103 -139 -152 -164 -45 -23 -124 -25 -174 -4 -32 13 -133 88 -317 233 l-67 53 62 79 c33 44 63 80 64 80 2 0 72 -53 156 -118 192 -149 189 -147 222 -121 51 40 41 54 -171 219 -73 56 -133 106 -133 110 0 4 28 42 61 84 l61 77 42 -34 c22 -18 101 -80 175 -137z m5319 -6 c59 -75 107 -141 107 -147 0 -6 -28 -32 -62 -59 l-61 -48 -52 65 c-51 64 -52 65 -75 47 -26 -19 -28 -14 38 -94 21 -26 36 -51 33 -56 -3 -5 -31 -29 -62 -53 l-56 -43 -27 29 c-14 17 -38 45 -52 63 l-25 33 -24 -19 -24 -19 53 -67 c30 -37 50 -71 45 -75 -63 -53 -114 -91 -122 -91 -11 0 -232 273 -232 286 1 10 470 384 482 384 5 0 57 -61 116 -136z m298 -439 l69 -136 0 -92 c0 -70 -4 -100 -18 -125 -52 -96 -182 -174 -290 -175 -130 -1 -226 76 -324 257 -29 53 -53 102 -53 109 1 11 513 295 536 296 6 1 42 -60 80 -134z m-6157 53 c86 -48 83 -41 40 -120 -22 -39 -38 -72 -37 -73 10 -8 50 -26 52 -23 2 2 19 33 40 70 l37 68 57 -30 c93 -48 89 -39 46 -119 -21 -39 -36 -72 -33 -74 2 -2 48 -27 102 -56 l97 -52 -47 -87 c-25 -48 -48 -89 -49 -91 -3 -3 -477 251 -531 285 -21 13 -20 15 54 151 89 163 101 183 110 183 3 0 31 -14 62 -32z m6362 -2297 c25 -31 22 -100 -7 -132 -16 -18 -19 -18 -33 -4 -14 13 -13 18 3 45 14 25 15 34 6 45 -20 24 -33 18 -58 -25 -27 -47 -61 -60 -97 -36 -20 13 -25 25 -25 59 0 55 21 87 43 68 13 -10 14 -17 5 -31 -12 -19 -5 -50 11 -50 6 0 20 18 31 40 32 64 81 72 121 21z m-6362 -141 c21 -98 11 -133 -45 -156 -31 -13 -39 -13 -65 0 -25 13 -29 13 -29 0 0 -31 -47 -64 -90 -64 -56 0 -85 30 -100 106 -6 32 -14 69 -17 80 -4 20 3 23 114 43 65 12 138 26 163 30 25 5 48 9 52 10 3 1 11 -22 17 -49z m6187 -34 c-6 -23 -3 -25 62 -35 92 -16 102 -20 102 -39 0 -37 -12 -40 -95 -25 -56 11 -80 12 -83 4 -5 -16 -52 -14 -52 3 0 15 -21 26 -51 26 -15 0 -19 7 -19 31 0 31 1 32 40 26 33 -4 40 -2 45 14 4 12 16 19 32 19 22 0 24 -3 19 -24z m-32 -142 c14 -5 14 -8 1 -27 -8 -12 -15 -31 -15 -43 0 -23 42 -64 65 -64 29 0 65 41 65 74 0 30 2 33 25 28 21 -4 25 -10 25 -39 0 -101 -101 -154 -187 -98 -32 21 -55 77 -47 113 14 58 29 71 68 56z m-6220 -111 c5 -16 3 -29 -5 -33 -8 -6 -7 -10 3 -16 8 -5 21 -20 28 -33 10 -19 10 -25 -1 -32 -27 -17 -46 -9 -52 21 -8 39 -41 47 -120 27 -34 -9 -62 -15 -63 -14 -1 1 -4 14 -8 29 -6 25 -3 28 31 37 21 5 63 16 93 25 79 20 87 20 94 -11z m6183 -123 c122 -38 143 -60 129 -136 -9 -46 -55 -96 -87 -96 -14 0 -57 10 -97 23 -64 20 -71 25 -66 43 11 35 18 37 79 16 75 -26 91 -25 110 4 25 38 7 58 -74 84 -39 13 -71 26 -71 30 0 8 12 52 14 52 0 0 29 -9 63 -20z m-6162 -56 c40 -18 68 -72 59 -109 -3 -14 -2 -25 4 -25 5 0 14 -12 20 -28 l9 -27 -104 -37 -104 -36 -10 26 c-7 18 -6 27 2 33 8 5 5 10 -8 18 -48 25 -54 118 -10 159 45 42 91 51 142 26z m6046 -205 c90 -39 165 -72 167 -74 1 -1 -2 -14 -7 -28 -7 -18 -15 -25 -26 -21 -13 5 -14 2 -6 -19 23 -59 -56 -135 -126 -122 -94 17 -135 124 -73 186 l30 30 -58 26 c-31 14 -67 29 -79 34 -20 7 -22 11 -11 34 6 14 15 25 19 25 4 0 81 -32 170 -71z m-5915 -74 c8 -16 8 -25 2 -27 -6 -2 3 -18 21 -35 33 -34 41 -76 19 -106 -7 -9 -40 -30 -73 -45 -93 -45 -100 -46 -113 -17 -12 26 -10 27 51 55 35 16 69 35 76 44 18 21 10 48 -18 62 -20 11 -33 8 -80 -13 -31 -14 -61 -27 -67 -29 -9 -4 -39 44 -32 51 7 7 184 84 193 84 6 1 15 -10 21 -24z m5884 -242 c81 -72 21 -223 -87 -223 -73 0 -133 78 -113 148 19 69 59 101 127 102 33 0 50 -7 73 -27z m-5748 -42 c25 -22 32 -37 32 -65 0 -20 1 -36 2 -36 1 0 34 18 73 40 39 22 74 40 79 40 5 0 14 -11 20 -24 11 -24 7 -27 -151 -115 l-162 -91 -18 22 c-12 14 -15 24 -8 31 7 7 3 14 -12 21 -12 6 -30 28 -40 49 -15 30 -17 43 -8 70 29 86 129 116 193 58z m5522 -150 c15 -16 15 -19 1 -31 -36 -30 -3 -85 76 -126 32 -16 35 -30 15 -56 -12 -16 -20 -12 -104 42 -89 57 -92 60 -80 85 8 17 17 24 28 20 14 -4 16 -1 13 19 -5 24 11 66 26 66 4 0 15 -8 25 -19z m-5365 -106 c34 -29 55 -82 46 -118 -4 -14 -19 -37 -34 -51 l-27 -26 -48 70 c-40 58 -51 68 -63 59 -24 -21 -12 -71 22 -89 53 -27 62 -60 16 -60 -38 0 -75 31 -95 80 -13 33 -14 46 -3 77 25 77 125 108 186 58z m5209 -25 c62 -38 70 -102 23 -169 l-21 -29 48 -38 c26 -21 49 -39 51 -41 6 -4 -31 -43 -41 -43 -12 0 -267 193 -267 202 -1 4 18 31 42 60 66 81 105 94 165 58z m-5038 -199 c14 -10 30 -35 35 -56 9 -32 13 -35 24 -22 7 9 37 34 67 58 52 40 55 41 69 23 8 -10 15 -22 15 -25 0 -4 -53 -51 -117 -105 -180 -152 -161 -139 -184 -118 -11 10 -18 23 -15 30 3 7 -6 15 -20 18 -14 4 -33 21 -44 39 -68 111 65 235 170 158z m4826 -167 c129 -122 134 -128 117 -146 -9 -10 -22 -17 -28 -16 -18 5 -265 240 -265 253 0 13 20 35 33 35 5 0 70 -57 143 -126z m-33 -152 l78 -78 -24 -22 c-18 -17 -26 -19 -35 -10 -9 9 -12 7 -12 -11 0 -12 -13 -36 -29 -52 -24 -23 -38 -29 -75 -29 -38 0 -51 5 -79 34 -38 38 -50 77 -35 115 14 39 49 71 76 71 15 0 22 5 19 13 -4 12 20 47 32 47 4 0 41 -35 84 -78z m-4378 54 c17 -12 16 -20 -40 -177 -32 -90 -61 -170 -64 -177 -5 -9 -13 -6 -30 12 -21 22 -22 28 -12 58 11 31 10 34 -38 82 l-50 50 -40 -16 c-38 -15 -40 -15 -62 8 l-22 24 109 50 c60 27 132 61 159 74 59 29 66 30 90 12z m4102 -214 c20 -16 116 -134 110 -136 -1 -1 -12 -9 -23 -19 -22 -18 -22 -17 -69 42 -48 62 -77 75 -103 49 -21 -21 -13 -54 28 -106 22 -27 40 -55 40 -61 0 -14 -40 -35 -49 -24 -4 4 -35 42 -69 84 l-61 76 23 22 c16 15 26 19 31 11 4 -7 13 1 23 22 17 32 53 58 82 58 8 0 25 -8 37 -18z m-4003 -31 c10 -11 15 -25 11 -30 -4 -7 5 -11 24 -11 37 0 87 -41 96 -79 8 -36 -13 -88 -50 -121 -37 -35 -103 -35 -139 -1 -14 14 -26 33 -26 43 0 29 -13 21 -54 -37 -22 -30 -43 -55 -46 -55 -4 0 -15 8 -24 19 -16 18 -13 25 81 154 54 75 101 136 104 137 3 0 14 -9 23 -19z m3784 -145 c35 -19 62 -67 62 -110 0 -31 -7 -45 -38 -76 -48 -48 -95 -59 -146 -35 -89 42 -88 167 2 214 43 23 87 26 120 7z m-321 -22 c8 -22 -10 -49 -32 -49 -22 0 -40 27 -32 49 8 21 56 21 64 0z m-3213 -9 c10 -7 15 -18 11 -24 -4 -7 7 -11 30 -11 82 0 123 -96 72 -171 -29 -43 -63 -61 -106 -55 -36 5 -81 40 -81 63 0 25 -15 13 -42 -35 -45 -78 -43 -76 -67 -61 -11 8 -21 18 -21 22 0 16 165 286 175 286 6 0 18 -6 29 -14z m3106 -98 c0 -7 7 -20 14 -30 11 -15 19 -16 34 -8 16 8 21 6 30 -14 7 -14 8 -25 4 -25 -4 0 -13 -4 -20 -9 -11 -6 -6 -23 22 -79 20 -39 36 -75 36 -80 0 -5 -11 -14 -25 -20 -25 -11 -26 -10 -62 63 -24 49 -43 75 -54 75 -20 0 -33 28 -20 44 6 7 4 20 -4 36 -20 35 -18 45 8 57 24 12 37 8 37 -10z m208 -88 c23 -42 42 -81 42 -86 0 -5 -11 -15 -24 -21 -22 -10 -26 -6 -76 85 l-52 96 23 18 c27 20 23 25 87 -92z m-2965 -10 c15 -18 27 -28 27 -21 0 9 8 9 29 -3 l30 -15 -49 -100 c-49 -98 -50 -100 -75 -88 -14 6 -24 16 -22 23 3 6 -10 10 -35 10 -33 0 -46 7 -69 33 -37 42 -42 92 -12 143 40 68 126 76 176 18z m2693 -60 c85 -80 25 -209 -96 -209 -52 0 -83 18 -105 60 -32 63 -8 130 58 161 52 24 110 19 143 -12z m-2038 3 c10 -7 4 -45 -28 -178 -22 -93 -42 -174 -45 -180 -5 -15 -55 -5 -55 11 0 7 18 90 41 184 42 175 48 187 87 163z m-462 -39 c-6 -15 -4 -16 26 -4 23 9 68 -2 68 -16 0 -4 -7 -16 -14 -26 -11 -15 -18 -16 -39 -6 -37 17 -58 0 -88 -73 -20 -50 -30 -62 -45 -60 -10 2 -23 7 -27 12 -7 6 49 169 69 202 8 13 55 -15 50 -29z m2193 -50 c13 -11 31 -51 46 -103 13 -46 23 -85 22 -86 -1 -1 -14 -4 -29 -8 -25 -6 -27 -3 -43 51 -25 91 -32 103 -59 103 -43 0 -50 -30 -27 -112 11 -40 20 -73 18 -73 -1 -1 -14 -5 -28 -8 -24 -6 -27 -3 -50 71 -22 70 -27 77 -52 80 -41 5 -49 -27 -25 -112 10 -38 17 -70 16 -71 -2 -2 -15 -6 -29 -10 -25 -6 -26 -4 -56 100 l-31 106 26 10 c19 7 28 7 30 -1 2 -6 17 1 34 15 31 26 76 33 95 14 7 -7 19 -1 41 20 35 35 69 40 101 14z m-1952 -10 c42 -19 66 -67 57 -112 -4 -17 -10 -31 -14 -31 -4 0 -33 9 -65 20 -73 25 -95 25 -95 2 0 -34 35 -55 78 -48 25 4 45 1 57 -8 17 -12 17 -14 -6 -29 -52 -37 -146 -10 -174 50 -23 48 -12 98 30 140 38 38 76 43 132 16z m588 -8 c37 -36 33 -80 -9 -119 -30 -29 -32 -34 -19 -52 8 -10 18 -26 23 -34 7 -13 12 -11 33 8 l25 23 16 -23 c16 -22 15 -24 -10 -44 l-27 -22 27 -34 c33 -44 33 -48 -4 -48 -19 0 -38 9 -51 24 -19 22 -22 23 -50 9 -42 -21 -106 -19 -137 4 -62 46 -56 123 12 164 30 17 34 24 26 39 -6 10 -10 34 -10 54 0 70 102 105 155 51z m464 -19 c56 -30 69 -116 24 -166 -22 -24 -39 -32 -80 -37 l-53 -6 3 -61 2 -61 -31 -3 -31 -3 -5 168 c-3 92 -3 171 -1 176 8 13 143 8 172 -7z m488 -76 c36 -22 60 -82 49 -125 -11 -42 -56 -82 -104 -90 -58 -9 -111 17 -136 69 -17 36 -18 43 -5 80 27 78 124 110 196 66z m-239 -33 c3 -23 0 -27 -22 -27 -46 0 -59 -25 -53 -107 4 -57 3 -73 -8 -73 -7 0 -20 -2 -28 -6 -15 -5 -20 16 -33 159 l-6 67 31 0 c17 0 31 -5 31 -12 0 -7 6 -6 18 4 39 35 66 33 70 -5z" fill="#ffffff" stroke="#ffffff" />
<path d="M3784 7388 c3 -29 5 -59 6 -66 0 -16 37 -7 63 16 39 34 9 102 -46 102 -27 0 -27 -1 -23 -52z" fill="#ffffff" stroke="#ffffff" />
<path d="M4402 7386 c-91 -50 -76 -190 25 -225 126 -44 218 115 119 206 -29 27 -44 33 -78 33 -24 -1 -53 -6 -66 -14z" fill="#ffffff" stroke="#ffffff" />
<path d="M3210 7345 c0 -27 22 -115 29 -115 3 0 17 7 29 16 26 18 29 59 6 92 -17 25 -64 31 -64 7z" fill="#ffffff" stroke="#ffffff" />
<path d="M5796 6879 c-38 -11 -66 -37 -83 -78 -38 -90 54 -187 151 -160 96 26 118 162 36 220 -33 22 -68 29 -104 18z" fill="#ffffff" stroke="#ffffff" />
<path d="M2162 4298 l3 -1603 488 -3 487 -2 0 655 0 655 410 0 410 0 0 -1240 0 -1240 478 0 c262 0 483 4 489 8 10 6 13 111 15 448 l3 439 120 6 c296 16 513 66 710 165 222 112 368 257 470 467 112 231 141 593 70 873 -108 427 -452 715 -955 797 -52 9 -111 19 -130 23 -19 4 -497 9 -1062 11 l-1028 4 0 170 0 169 415 0 415 0 0 400 0 400 -905 0 -905 0 2 -1602z m2933 -379 c118 -22 179 -69 227 -175 29 -65 32 -222 5 -301 -42 -121 -137 -182 -294 -191 l-93 -5 0 342 0 341 48 0 c27 0 75 -5 107 -11z" fill="#ffffff" stroke="#ffffff" />
<path d="M6881 5624 l-115 -62 36 -36 c41 -41 86 -47 144 -20 67 32 90 92 61 155 l-12 26 -114 -63z" fill="#ffffff" stroke="#ffffff" />
<path d="M887 3399 c-20 -3 -40 -8 -43 -12 -10 -10 7 -47 27 -57 36 -20 77 19 61 58 -6 14 -14 17 -45 11z" fill="#ffffff" stroke="#ffffff" />
<path d="M725 3371 c-16 -3 -29 -10 -29 -14 13 -77 38 -100 80 -72 24 15 31 46 18 79 -6 17 -19 18 -69 7z" fill="#ffffff" stroke="#ffffff" />
<path d="M870 2913 c-50 -19 -66 -75 -30 -108 40 -36 110 -9 110 42 0 13 -11 35 -25 48 -25 26 -30 27 -55 18z" fill="#ffffff" stroke="#ffffff" />
<path d="M6975 2678 c-27 -15 -35 -28 -35 -59 0 -55 83 -82 114 -37 21 29 20 51 -1 76 -23 26 -53 34 -78 20z" fill="#ffffff" stroke="#ffffff" />
<path d="M6820 2390 c-11 -11 -20 -29 -20 -40 0 -27 43 -70 70 -70 29 0 60 35 60 68 0 57 -69 83 -110 42z" fill="#ffffff" stroke="#ffffff" />
<path d="M1081 2344 c-12 -15 -21 -32 -21 -39 0 -23 41 -65 64 -65 37 0 66 28 66 64 0 64 -70 90 -109 40z" fill="#ffffff" stroke="#ffffff" />
<path d="M1287 2114 c-3 -4 8 -27 25 -51 31 -47 48 -45 48 4 0 32 -54 66 -73 47z" fill="#ffffff" stroke="#ffffff" />
<path d="M6460 2045 c-13 -14 -22 -26 -19 -28 2 -2 21 -17 43 -32 l38 -29 19 23 c23 28 24 54 3 75 -23 23 -57 19 -84 -9z" fill="#ffffff" stroke="#ffffff" />
<path d="M1420 1860 c-28 -28 -25 -64 6 -89 15 -12 32 -21 39 -21 26 0 65 41 65 69 0 56 -70 81 -110 41z" fill="#ffffff" stroke="#ffffff" />
<path d="M6190 1570 c-25 -25 -26 -72 -2 -93 40 -37 112 -6 112 47 0 27 -42 66 -71 66 -11 0 -28 -9 -39 -20z" fill="#ffffff" stroke="#ffffff" />
<path d="M1815 1558 l-60 -31 40 -34 39 -33 23 61 c13 34 22 63 21 65 -2 1 -30 -12 -63 -28z" fill="#ffffff" stroke="#ffffff" />
<path d="M1994 1304 c-22 -33 -10 -72 28 -93 25 -14 29 -14 55 5 33 25 42 73 18 98 -26 26 -81 21 -101 -10z" fill="#ffffff" stroke="#ffffff" />
<path d="M5722 1204 c-45 -31 -14 -114 43 -114 30 0 65 36 65 67 0 29 -33 63 -63 63 -12 0 -33 -7 -45 -16z" fill="#ffffff" stroke="#ffffff" />
<path d="M2256 1138 c-22 -31 -20 -64 6 -88 29 -26 59 -25 86 3 42 44 16 107 -43 107 -24 0 -39 -7 -49 -22z" fill="#ffffff" stroke="#ffffff" />
<path d="M2530 1000 c-25 -25 -26 -72 -2 -93 40 -36 112 -6 112 46 0 29 -39 67 -68 67 -12 0 -31 -9 -42 -20z" fill="#ffffff" stroke="#ffffff" />
<path d="M5200 930 c-27 -27 -25 -56 5 -85 43 -44 105 -21 105 39 0 60 -68 88 -110 46z" fill="#ffffff" stroke="#ffffff" />
<path d="M2991 836 c-10 -12 -5 -17 36 -29 57 -16 69 -13 50 16 -17 27 -69 34 -86 13z" fill="#ffffff" stroke="#ffffff" />
<path d="M3577 844 c-12 -12 -8 -51 6 -62 20 -17 59 14 55 41 -3 22 -45 36 -61 21z" fill="#ffffff" stroke="#ffffff" />
<path d="M3526 689 c-30 -24 -33 -49 -8 -72 21 -19 40 -21 76 -7 l26 9 -21 35 c-32 54 -42 59 -73 35z" fill="#ffffff" stroke="#ffffff" />
<path d="M4020 760 c0 -50 0 -50 33 -50 40 0 57 15 57 50 0 35 -17 50 -57 50 -33 0 -33 0 -33 -50z" fill="#ffffff" stroke="#ffffff" />
<path d="M4500 732 c-44 -35 -17 -112 39 -112 48 0 78 41 61 84 -17 45 -63 58 -100 28z" fill="#ffffff" stroke="#ffffff" />
<path d="M1 1863 l-1 -1863 1863 1 c1101 1 1825 5 1772 10 -743 71 -1453 345 -2039 788 -834 629 -1392 1557 -1551 2578 -14 87 -29 201 -33 253 -6 59 -10 -611 -11 -1767z" fill="#ffffff" stroke="#ffffff" />
<path d="M7986 3628 c-3 -51 -17 -164 -31 -251 -182 -1165 -873 -2191 -1890 -2807 -246 -149 -568 -296 -845 -385 -245 -78 -592 -149 -850 -173 -59 -6 611 -10 1768 -11 l1862 -1 0 1860 c0 1023 -2 1860 -4 1860 -1 0 -6 -42 -10 -92z" fill="#ffffff" stroke="#ffffff" />
</g>
<rect x="0" y="0" width="800" height="800" background="#ffffff" /><metadata fill="#ffffff" stroke="#ffffff">
Created by potrace 1.16, written by Peter Selinger 2001-2019
</metadata>
<g transform="translate(0.000000,800.000000) scale(0.100000,-0.100000)" fill="#ffffff" stroke="#ffffff">
<path d="M1 6138 c1 -1088 5 -1826 10 -1773 88 935 496 1803 1159 2465 666 665 1530 1071 2465 1159 53 5 -685 9 -1772 10 l-1863 1 1 -1862z" fill="#ffffff" stroke="#ffffff" />
<path d="M4365 7989 c1388 -132 2598 -962 3221 -2209 217 -435 357 -928 402 -1410 6 -59 10 611 11 1768 l1 1862 -1862 -1 c-1102 -1 -1826 -5 -1773 -10z" fill="#ffffff" stroke="#ffffff" />
<path d="M3730 7933 c-376 -35 -616 -81 -915 -174 -412 -129 -831 -345 -1181 -609 -277 -209 -489 -415 -703 -680 -470 -585 -749 -1248 -848 -2015 -22 -174 -25 -700 -5 -865 63 -516 188 -937 408 -1370 585 -1155 1685 -1940 2974 -2124 399 -57 897 -44 1290 34 780 156 1474 525 2031 1080 673 671 1070 1532 1150 2495 16 195 6 597 -20 790 -64 471 -187 871 -397 1285 -621 1226 -1819 2031 -3199 2149 -109 10 -500 13 -585 4z m215 -347 c64 -29 108 -84 125 -156 17 -72 1 -137 -52 -211 -9 -14 -1 -33 49 -110 l61 -94 -26 -6 c-15 -4 -69 -7 -119 -8 l-93 -1 -45 68 -46 67 2 -67 c1 -38 0 -70 -2 -72 -5 -5 -199 -18 -199 -14 -7 87 -30 530 -30 570 l0 57 93 4 c156 7 223 0 282 -27z m625 2 c125 -39 220 -171 220 -307 0 -90 -26 -155 -87 -221 -73 -80 -132 -105 -243 -104 -100 0 -156 22 -223 88 -64 62 -91 125 -95 223 -4 72 -1 89 23 140 72 158 237 232 405 181z m-1219 -63 c83 -30 137 -106 146 -207 11 -112 -47 -195 -165 -238 l-60 -22 14 -56 c21 -90 24 -86 -73 -106 -47 -10 -92 -20 -98 -22 -14 -6 -151 594 -139 606 14 12 233 58 285 59 26 1 66 -6 90 -14z m1715 -52 l73 -27 34 -139 33 -138 76 55 c43 30 95 67 116 81 l39 26 69 -26 c38 -14 73 -30 77 -34 7 -7 -196 -557 -212 -574 -7 -7 -166 47 -183 62 -4 4 8 47 27 96 19 48 33 90 32 92 -2 1 -39 -22 -83 -52 -43 -30 -81 -55 -84 -55 -3 0 -16 46 -29 103 l-24 102 -34 -90 c-19 -49 -38 -93 -42 -98 -12 -12 -186 57 -185 74 2 11 108 295 203 542 6 15 14 27 17 27 4 0 40 -12 80 -27z m-2410 -235 c-11 -275 -15 -249 48 -381 31 -65 56 -121 56 -123 0 -7 -162 -84 -175 -84 -6 0 -35 52 -65 115 l-53 115 -160 113 c-88 62 -162 118 -164 123 -2 6 41 31 94 56 l98 47 58 -40 57 -40 1 53 c0 29 4 62 8 72 5 14 174 112 199 115 2 1 1 -63 -2 -141z m3309 -182 c134 -61 210 -206 184 -349 -20 -114 -77 -190 -177 -239 -59 -29 -76 -33 -148 -32 -99 0 -170 31 -234 100 -65 70 -85 123 -85 224 0 73 4 93 28 142 79 160 270 229 432 154z m-3836 -221 c68 -102 126 -185 128 -185 2 0 30 17 61 38 31 21 62 42 68 45 11 7 113 -128 103 -137 -12 -10 -309 -206 -313 -206 -8 0 -339 492 -340 506 -1 12 148 125 163 124 3 -1 62 -84 130 -185z m4441 -279 l84 -86 -54 -55 c-30 -30 -59 -55 -64 -55 -6 0 -26 16 -46 35 l-35 35 -155 -164 -154 -164 -26 18 c-14 10 -49 43 -78 72 l-52 54 155 164 155 165 -39 39 -40 40 57 61 57 62 75 -68 c41 -37 113 -106 160 -153z m-4780 -113 l85 -92 60 54 c33 30 63 55 66 55 9 0 109 -108 109 -118 0 -8 -254 -246 -272 -254 -3 -2 -101 99 -217 224 l-211 227 53 49 c28 28 63 59 77 71 l25 20 70 -72 c39 -40 109 -113 155 -164z m2430 197 c339 -31 653 -119 950 -266 257 -127 458 -268 663 -464 237 -226 408 -464 556 -770 203 -422 292 -903 251 -1360 -74 -818 -497 -1536 -1170 -1985 -127 -85 -330 -196 -429 -235 -30 -12 -73 -29 -95 -40 -144 -65 -449 -136 -685 -160 -130 -13 -397 -13 -521 0 -753 79 -1423 458 -1865 1055 -110 149 -164 236 -244 395 -189 374 -280 759 -281 1186 0 616 203 1195 587 1669 356 438 864 762 1413 901 123 31 347 69 460 77 104 8 303 6 410 -3z m-2701 -380 c162 -126 191 -165 191 -254 0 -38 -8 -77 -20 -103 -24 -54 -103 -139 -152 -164 -45 -23 -124 -25 -174 -4 -32 13 -133 88 -317 233 l-67 53 62 79 c33 44 63 80 64 80 2 0 72 -53 156 -118 192 -149 189 -147 222 -121 51 40 41 54 -171 219 -73 56 -133 106 -133 110 0 4 28 42 61 84 l61 77 42 -34 c22 -18 101 -80 175 -137z m5319 -6 c59 -75 107 -141 107 -147 0 -6 -28 -32 -62 -59 l-61 -48 -52 65 c-51 64 -52 65 -75 47 -26 -19 -28 -14 38 -94 21 -26 36 -51 33 -56 -3 -5 -31 -29 -62 -53 l-56 -43 -27 29 c-14 17 -38 45 -52 63 l-25 33 -24 -19 -24 -19 53 -67 c30 -37 50 -71 45 -75 -63 -53 -114 -91 -122 -91 -11 0 -232 273 -232 286 1 10 470 384 482 384 5 0 57 -61 116 -136z m298 -439 l69 -136 0 -92 c0 -70 -4 -100 -18 -125 -52 -96 -182 -174 -290 -175 -130 -1 -226 76 -324 257 -29 53 -53 102 -53 109 1 11 513 295 536 296 6 1 42 -60 80 -134z m-6157 53 c86 -48 83 -41 40 -120 -22 -39 -38 -72 -37 -73 10 -8 50 -26 52 -23 2 2 19 33 40 70 l37 68 57 -30 c93 -48 89 -39 46 -119 -21 -39 -36 -72 -33 -74 2 -2 48 -27 102 -56 l97 -52 -47 -87 c-25 -48 -48 -89 -49 -91 -3 -3 -477 251 -531 285 -21 13 -20 15 54 151 89 163 101 183 110 183 3 0 31 -14 62 -32z m6362 -2297 c25 -31 22 -100 -7 -132 -16 -18 -19 -18 -33 -4 -14 13 -13 18 3 45 14 25 15 34 6 45 -20 24 -33 18 -58 -25 -27 -47 -61 -60 -97 -36 -20 13 -25 25 -25 59 0 55 21 87 43 68 13 -10 14 -17 5 -31 -12 -19 -5 -50 11 -50 6 0 20 18 31 40 32 64 81 72 121 21z m-6362 -141 c21 -98 11 -133 -45 -156 -31 -13 -39 -13 -65 0 -25 13 -29 13 -29 0 0 -31 -47 -64 -90 -64 -56 0 -85 30 -100 106 -6 32 -14 69 -17 80 -4 20 3 23 114 43 65 12 138 26 163 30 25 5 48 9 52 10 3 1 11 -22 17 -49z m6187 -34 c-6 -23 -3 -25 62 -35 92 -16 102 -20 102 -39 0 -37 -12 -40 -95 -25 -56 11 -80 12 -83 4 -5 -16 -52 -14 -52 3 0 15 -21 26 -51 26 -15 0 -19 7 -19 31 0 31 1 32 40 26 33 -4 40 -2 45 14 4 12 16 19 32 19 22 0 24 -3 19 -24z m-32 -142 c14 -5 14 -8 1 -27 -8 -12 -15 -31 -15 -43 0 -23 42 -64 65 -64 29 0 65 41 65 74 0 30 2 33 25 28 21 -4 25 -10 25 -39 0 -101 -101 -154 -187 -98 -32 21 -55 77 -47 113 14 58 29 71 68 56z m-6220 -111 c5 -16 3 -29 -5 -33 -8 -6 -7 -10 3 -16 8 -5 21 -20 28 -33 10 -19 10 -25 -1 -32 -27 -17 -46 -9 -52 21 -8 39 -41 47 -120 27 -34 -9 -62 -15 -63 -14 -1 1 -4 14 -8 29 -6 25 -3 28 31 37 21 5 63 16 93 25 79 20 87 20 94 -11z m6183 -123 c122 -38 143 -60 129 -136 -9 -46 -55 -96 -87 -96 -14 0 -57 10 -97 23 -64 20 -71 25 -66 43 11 35 18 37 79 16 75 -26 91 -25 110 4 25 38 7 58 -74 84 -39 13 -71 26 -71 30 0 8 12 52 14 52 0 0 29 -9 63 -20z m-6162 -56 c40 -18 68 -72 59 -109 -3 -14 -2 -25 4 -25 5 0 14 -12 20 -28 l9 -27 -104 -37 -104 -36 -10 26 c-7 18 -6 27 2 33 8 5 5 10 -8 18 -48 25 -54 118 -10 159 45 42 91 51 142 26z m6046 -205 c90 -39 165 -72 167 -74 1 -1 -2 -14 -7 -28 -7 -18 -15 -25 -26 -21 -13 5 -14 2 -6 -19 23 -59 -56 -135 -126 -122 -94 17 -135 124 -73 186 l30 30 -58 26 c-31 14 -67 29 -79 34 -20 7 -22 11 -11 34 6 14 15 25 19 25 4 0 81 -32 170 -71z m-5915 -74 c8 -16 8 -25 2 -27 -6 -2 3 -18 21 -35 33 -34 41 -76 19 -106 -7 -9 -40 -30 -73 -45 -93 -45 -100 -46 -113 -17 -12 26 -10 27 51 55 35 16 69 35 76 44 18 21 10 48 -18 62 -20 11 -33 8 -80 -13 -31 -14 -61 -27 -67 -29 -9 -4 -39 44 -32 51 7 7 184 84 193 84 6 1 15 -10 21 -24z m5884 -242 c81 -72 21 -223 -87 -223 -73 0 -133 78 -113 148 19 69 59 101 127 102 33 0 50 -7 73 -27z m-5748 -42 c25 -22 32 -37 32 -65 0 -20 1 -36 2 -36 1 0 34 18 73 40 39 22 74 40 79 40 5 0 14 -11 20 -24 11 -24 7 -27 -151 -115 l-162 -91 -18 22 c-12 14 -15 24 -8 31 7 7 3 14 -12 21 -12 6 -30 28 -40 49 -15 30 -17 43 -8 70 29 86 129 116 193 58z m5522 -150 c15 -16 15 -19 1 -31 -36 -30 -3 -85 76 -126 32 -16 35 -30 15 -56 -12 -16 -20 -12 -104 42 -89 57 -92 60 -80 85 8 17 17 24 28 20 14 -4 16 -1 13 19 -5 24 11 66 26 66 4 0 15 -8 25 -19z m-5365 -106 c34 -29 55 -82 46 -118 -4 -14 -19 -37 -34 -51 l-27 -26 -48 70 c-40 58 -51 68 -63 59 -24 -21 -12 -71 22 -89 53 -27 62 -60 16 -60 -38 0 -75 31 -95 80 -13 33 -14 46 -3 77 25 77 125 108 186 58z m5209 -25 c62 -38 70 -102 23 -169 l-21 -29 48 -38 c26 -21 49 -39 51 -41 6 -4 -31 -43 -41 -43 -12 0 -267 193 -267 202 -1 4 18 31 42 60 66 81 105 94 165 58z m-5038 -199 c14 -10 30 -35 35 -56 9 -32 13 -35 24 -22 7 9 37 34 67 58 52 40 55 41 69 23 8 -10 15 -22 15 -25 0 -4 -53 -51 -117 -105 -180 -152 -161 -139 -184 -118 -11 10 -18 23 -15 30 3 7 -6 15 -20 18 -14 4 -33 21 -44 39 -68 111 65 235 170 158z m4826 -167 c129 -122 134 -128 117 -146 -9 -10 -22 -17 -28 -16 -18 5 -265 240 -265 253 0 13 20 35 33 35 5 0 70 -57 143 -126z m-33 -152 l78 -78 -24 -22 c-18 -17 -26 -19 -35 -10 -9 9 -12 7 -12 -11 0 -12 -13 -36 -29 -52 -24 -23 -38 -29 -75 -29 -38 0 -51 5 -79 34 -38 38 -50 77 -35 115 14 39 49 71 76 71 15 0 22 5 19 13 -4 12 20 47 32 47 4 0 41 -35 84 -78z m-4378 54 c17 -12 16 -20 -40 -177 -32 -90 -61 -170 -64 -177 -5 -9 -13 -6 -30 12 -21 22 -22 28 -12 58 11 31 10 34 -38 82 l-50 50 -40 -16 c-38 -15 -40 -15 -62 8 l-22 24 109 50 c60 27 132 61 159 74 59 29 66 30 90 12z m4102 -214 c20 -16 116 -134 110 -136 -1 -1 -12 -9 -23 -19 -22 -18 -22 -17 -69 42 -48 62 -77 75 -103 49 -21 -21 -13 -54 28 -106 22 -27 40 -55 40 -61 0 -14 -40 -35 -49 -24 -4 4 -35 42 -69 84 l-61 76 23 22 c16 15 26 19 31 11 4 -7 13 1 23 22 17 32 53 58 82 58 8 0 25 -8 37 -18z m-4003 -31 c10 -11 15 -25 11 -30 -4 -7 5 -11 24 -11 37 0 87 -41 96 -79 8 -36 -13 -88 -50 -121 -37 -35 -103 -35 -139 -1 -14 14 -26 33 -26 43 0 29 -13 21 -54 -37 -22 -30 -43 -55 -46 -55 -4 0 -15 8 -24 19 -16 18 -13 25 81 154 54 75 101 136 104 137 3 0 14 -9 23 -19z m3784 -145 c35 -19 62 -67 62 -110 0 -31 -7 -45 -38 -76 -48 -48 -95 -59 -146 -35 -89 42 -88 167 2 214 43 23 87 26 120 7z m-321 -22 c8 -22 -10 -49 -32 -49 -22 0 -40 27 -32 49 8 21 56 21 64 0z m-3213 -9 c10 -7 15 -18 11 -24 -4 -7 7 -11 30 -11 82 0 123 -96 72 -171 -29 -43 -63 -61 -106 -55 -36 5 -81 40 -81 63 0 25 -15 13 -42 -35 -45 -78 -43 -76 -67 -61 -11 8 -21 18 -21 22 0 16 165 286 175 286 6 0 18 -6 29 -14z m3106 -98 c0 -7 7 -20 14 -30 11 -15 19 -16 34 -8 16 8 21 6 30 -14 7 -14 8 -25 4 -25 -4 0 -13 -4 -20 -9 -11 -6 -6 -23 22 -79 20 -39 36 -75 36 -80 0 -5 -11 -14 -25 -20 -25 -11 -26 -10 -62 63 -24 49 -43 75 -54 75 -20 0 -33 28 -20 44 6 7 4 20 -4 36 -20 35 -18 45 8 57 24 12 37 8 37 -10z m208 -88 c23 -42 42 -81 42 -86 0 -5 -11 -15 -24 -21 -22 -10 -26 -6 -76 85 l-52 96 23 18 c27 20 23 25 87 -92z m-2965 -10 c15 -18 27 -28 27 -21 0 9 8 9 29 -3 l30 -15 -49 -100 c-49 -98 -50 -100 -75 -88 -14 6 -24 16 -22 23 3 6 -10 10 -35 10 -33 0 -46 7 -69 33 -37 42 -42 92 -12 143 40 68 126 76 176 18z m2693 -60 c85 -80 25 -209 -96 -209 -52 0 -83 18 -105 60 -32 63 -8 130 58 161 52 24 110 19 143 -12z m-2038 3 c10 -7 4 -45 -28 -178 -22 -93 -42 -174 -45 -180 -5 -15 -55 -5 -55 11 0 7 18 90 41 184 42 175 48 187 87 163z m-462 -39 c-6 -15 -4 -16 26 -4 23 9 68 -2 68 -16 0 -4 -7 -16 -14 -26 -11 -15 -18 -16 -39 -6 -37 17 -58 0 -88 -73 -20 -50 -30 -62 -45 -60 -10 2 -23 7 -27 12 -7 6 49 169 69 202 8 13 55 -15 50 -29z m2193 -50 c13 -11 31 -51 46 -103 13 -46 23 -85 22 -86 -1 -1 -14 -4 -29 -8 -25 -6 -27 -3 -43 51 -25 91 -32 103 -59 103 -43 0 -50 -30 -27 -112 11 -40 20 -73 18 -73 -1 -1 -14 -5 -28 -8 -24 -6 -27 -3 -50 71 -22 70 -27 77 -52 80 -41 5 -49 -27 -25 -112 10 -38 17 -70 16 -71 -2 -2 -15 -6 -29 -10 -25 -6 -26 -4 -56 100 l-31 106 26 10 c19 7 28 7 30 -1 2 -6 17 1 34 15 31 26 76 33 95 14 7 -7 19 -1 41 20 35 35 69 40 101 14z m-1952 -10 c42 -19 66 -67 57 -112 -4 -17 -10 -31 -14 -31 -4 0 -33 9 -65 20 -73 25 -95 25 -95 2 0 -34 35 -55 78 -48 25 4 45 1 57 -8 17 -12 17 -14 -6 -29 -52 -37 -146 -10 -174 50 -23 48 -12 98 30 140 38 38 76 43 132 16z m588 -8 c37 -36 33 -80 -9 -119 -30 -29 -32 -34 -19 -52 8 -10 18 -26 23 -34 7 -13 12 -11 33 8 l25 23 16 -23 c16 -22 15 -24 -10 -44 l-27 -22 27 -34 c33 -44 33 -48 -4 -48 -19 0 -38 9 -51 24 -19 22 -22 23 -50 9 -42 -21 -106 -19 -137 4 -62 46 -56 123 12 164 30 17 34 24 26 39 -6 10 -10 34 -10 54 0 70 102 105 155 51z m464 -19 c56 -30 69 -116 24 -166 -22 -24 -39 -32 -80 -37 l-53 -6 3 -61 2 -61 -31 -3 -31 -3 -5 168 c-3 92 -3 171 -1 176 8 13 143 8 172 -7z m488 -76 c36 -22 60 -82 49 -125 -11 -42 -56 -82 -104 -90 -58 -9 -111 17 -136 69 -17 36 -18 43 -5 80 27 78 124 110 196 66z m-239 -33 c3 -23 0 -27 -22 -27 -46 0 -59 -25 -53 -107 4 -57 3 -73 -8 -73 -7 0 -20 -2 -28 -6 -15 -5 -20 16 -33 159 l-6 67 31 0 c17 0 31 -5 31 -12 0 -7 6 -6 18 4 39 35 66 33 70 -5z" fill="#ffffff" stroke="#ffffff" />
<path d="M3784 7388 c3 -29 5 -59 6 -66 0 -16 37 -7 63 16 39 34 9 102 -46 102 -27 0 -27 -1 -23 -52z" fill="#ffffff" stroke="#ffffff" />
<path d="M4402 7386 c-91 -50 -76 -190 25 -225 126 -44 218 115 119 206 -29 27 -44 33 -78 33 -24 -1 -53 -6 -66 -14z" fill="#ffffff" stroke="#ffffff" />
<path d="M3210 7345 c0 -27 22 -115 29 -115 3 0 17 7 29 16 26 18 29 59 6 92 -17 25 -64 31 -64 7z" fill="#ffffff" stroke="#ffffff" />
<path d="M5796 6879 c-38 -11 -66 -37 -83 -78 -38 -90 54 -187 151 -160 96 26 118 162 36 220 -33 22 -68 29 -104 18z" fill="#ffffff" stroke="#ffffff" />
<path d="M2162 4298 l3 -1603 488 -3 487 -2 0 655 0 655 410 0 410 0 0 -1240 0 -1240 478 0 c262 0 483 4 489 8 10 6 13 111 15 448 l3 439 120 6 c296 16 513 66 710 165 222 112 368 257 470 467 112 231 141 593 70 873 -108 427 -452 715 -955 797 -52 9 -111 19 -130 23 -19 4 -497 9 -1062 11 l-1028 4 0 170 0 169 415 0 415 0 0 400 0 400 -905 0 -905 0 2 -1602z m2933 -379 c118 -22 179 -69 227 -175 29 -65 32 -222 5 -301 -42 -121 -137 -182 -294 -191 l-93 -5 0 342 0 341 48 0 c27 0 75 -5 107 -11z" fill="#ffffff" stroke="#ffffff" />
<path d="M6881 5624 l-115 -62 36 -36 c41 -41 86 -47 144 -20 67 32 90 92 61 155 l-12 26 -114 -63z" fill="#ffffff" stroke="#ffffff" />
<path d="M887 3399 c-20 -3 -40 -8 -43 -12 -10 -10 7 -47 27 -57 36 -20 77 19 61 58 -6 14 -14 17 -45 11z" fill="#ffffff" stroke="#ffffff" />
<path d="M725 3371 c-16 -3 -29 -10 -29 -14 13 -77 38 -100 80 -72 24 15 31 46 18 79 -6 17 -19 18 -69 7z" fill="#ffffff" stroke="#ffffff" />
<path d="M870 2913 c-50 -19 -66 -75 -30 -108 40 -36 110 -9 110 42 0 13 -11 35 -25 48 -25 26 -30 27 -55 18z" fill="#ffffff" stroke="#ffffff" />
<path d="M6975 2678 c-27 -15 -35 -28 -35 -59 0 -55 83 -82 114 -37 21 29 20 51 -1 76 -23 26 -53 34 -78 20z" fill="#ffffff" stroke="#ffffff" />
<path d="M6820 2390 c-11 -11 -20 -29 -20 -40 0 -27 43 -70 70 -70 29 0 60 35 60 68 0 57 -69 83 -110 42z" fill="#ffffff" stroke="#ffffff" />
<path d="M1081 2344 c-12 -15 -21 -32 -21 -39 0 -23 41 -65 64 -65 37 0 66 28 66 64 0 64 -70 90 -109 40z" fill="#ffffff" stroke="#ffffff" />
<path d="M1287 2114 c-3 -4 8 -27 25 -51 31 -47 48 -45 48 4 0 32 -54 66 -73 47z" fill="#ffffff" stroke="#ffffff" />
<path d="M6460 2045 c-13 -14 -22 -26 -19 -28 2 -2 21 -17 43 -32 l38 -29 19 23 c23 28 24 54 3 75 -23 23 -57 19 -84 -9z" fill="#ffffff" stroke="#ffffff" />
<path d="M1420 1860 c-28 -28 -25 -64 6 -89 15 -12 32 -21 39 -21 26 0 65 41 65 69 0 56 -70 81 -110 41z" fill="#ffffff" stroke="#ffffff" />
<path d="M6190 1570 c-25 -25 -26 -72 -2 -93 40 -37 112 -6 112 47 0 27 -42 66 -71 66 -11 0 -28 -9 -39 -20z" fill="#ffffff" stroke="#ffffff" />
<path d="M1815 1558 l-60 -31 40 -34 39 -33 23 61 c13 34 22 63 21 65 -2 1 -30 -12 -63 -28z" fill="#ffffff" stroke="#ffffff" />
<path d="M1994 1304 c-22 -33 -10 -72 28 -93 25 -14 29 -14 55 5 33 25 42 73 18 98 -26 26 -81 21 -101 -10z" fill="#ffffff" stroke="#ffffff" />
<path d="M5722 1204 c-45 -31 -14 -114 43 -114 30 0 65 36 65 67 0 29 -33 63 -63 63 -12 0 -33 -7 -45 -16z" fill="#ffffff" stroke="#ffffff" />
<path d="M2256 1138 c-22 -31 -20 -64 6 -88 29 -26 59 -25 86 3 42 44 16 107 -43 107 -24 0 -39 -7 -49 -22z" fill="#ffffff" stroke="#ffffff" />
<path d="M2530 1000 c-25 -25 -26 -72 -2 -93 40 -36 112 -6 112 46 0 29 -39 67 -68 67 -12 0 -31 -9 -42 -20z" fill="#ffffff" stroke="#ffffff" />
<path d="M5200 930 c-27 -27 -25 -56 5 -85 43 -44 105 -21 105 39 0 60 -68 88 -110 46z" fill="#ffffff" stroke="#ffffff" />
<path d="M2991 836 c-10 -12 -5 -17 36 -29 57 -16 69 -13 50 16 -17 27 -69 34 -86 13z" fill="#ffffff" stroke="#ffffff" />
<path d="M3577 844 c-12 -12 -8 -51 6 -62 20 -17 59 14 55 41 -3 22 -45 36 -61 21z" fill="#ffffff" stroke="#ffffff" />
<path d="M3526 689 c-30 -24 -33 -49 -8 -72 21 -19 40 -21 76 -7 l26 9 -21 35 c-32 54 -42 59 -73 35z" fill="#ffffff" stroke="#ffffff" />
<path d="M4020 760 c0 -50 0 -50 33 -50 40 0 57 15 57 50 0 35 -17 50 -57 50 -33 0 -33 0 -33 -50z" fill="#ffffff" stroke="#ffffff" />
<path d="M4500 732 c-44 -35 -17 -112 39 -112 48 0 78 41 61 84 -17 45 -63 58 -100 28z" fill="#ffffff" stroke="#ffffff" />
<path d="M1 1863 l-1 -1863 1863 1 c1101 1 1825 5 1772 10 -743 71 -1453 345 -2039 788 -834 629 -1392 1557 -1551 2578 -14 87 -29 201 -33 253 -6 59 -10 -611 -11 -1767z" fill="#ffffff" stroke="#ffffff" />
<path d="M7986 3628 c-3 -51 -17 -164 -31 -251 -182 -1165 -873 -2191 -1890 -2807 -246 -149 -568 -296 -845 -385 -245 -78 -592 -149 -850 -173 -59 -6 611 -10 1768 -11 l1862 -1 0 1860 c0 1023 -2 1860 -4 1860 -1 0 -6 -42 -10 -92z" fill="#ffffff" stroke="#ffffff" />
</g>
<metadata fill="#006cf7" stroke="#006cf7">
Created by potrace 1.16, written by Peter Selinger 2001-2019
</metadata>
<g transform="translate(0.000000,800.000000) scale(0.100000,-0.100000)" fill="#006cf7" stroke="#006cf7">
<path d="M3675 7989 c-583 -54 -1124 -217 -1605 -485 -359 -199 -642 -416 -932 -713 -636 -650 -1018 -1465 -1120 -2386 -17 -158 -17 -652 0 -810 88 -793 372 -1482 871 -2110 122 -154 442 -474 596 -596 627 -498 1318 -783 2110 -871 158 -17 652 -17 810 0 793 88 1483 373 2110 871 148 117 461 428 581 576 501 619 798 1332 886 2130 17 158 17 652 0 810 -88 793 -372 1482 -871 2110 -122 154 -442 474 -596 596 -614 488 -1279 767 -2055 864 -150 19 -639 28 -785 14z m680 -60 c942 -87 1805 -498 2465 -1176 432 -442 730 -931 925 -1518 329 -986 249 -2068 -221 -3006 -339 -678 -896 -1268 -1554 -1646 -1151 -662 -2549 -703 -3735 -111 -682 342 -1273 898 -1652 1558 -664 1155 -704 2549 -107 3741 375 751 1006 1380 1759 1757 570 285 1228 433 1845 416 91 -3 215 -10 275 -15z" fill="#006cf7" stroke="#006cf7" />
<path d="M3597 7603 l-27 -4 5 -107 c3 -59 10 -181 15 -272 6 -91 10 -180 10 -197 l0 -33 78 0 c42 0 88 3 101 7 23 6 23 9 18 70 -4 34 -2 63 2 63 5 0 28 -30 51 -66 l43 -65 111 7 c61 3 113 8 114 9 2 2 -24 46 -58 99 l-62 95 22 23 c56 59 67 169 25 254 -48 97 -114 125 -294 123 -69 -1 -138 -4 -154 -6z m231 -164 c57 -20 61 -99 6 -120 -46 -17 -54 -6 -54 66 0 36 4 65 9 65 4 0 22 -5 39 -11z" fill="#006cf7" stroke="#006cf7" />
<path d="M4354 7582 c-230 -82 -286 -381 -103 -546 157 -141 412 -90 506 102 39 80 40 191 1 273 -32 69 -88 128 -153 159 -66 32 -180 38 -251 12z m163 -189 c46 -21 73 -67 73 -121 0 -34 -6 -49 -33 -78 -28 -31 -42 -37 -84 -41 -45 -5 -53 -2 -86 27 -77 67 -63 176 28 216 40 18 60 17 102 -3z" fill="#006cf7" stroke="#006cf7" />
<path d="M3072 7503 c-85 -20 -103 -28 -100 -41 3 -10 33 -143 68 -297 35 -154 64 -282 66 -284 4 -5 169 30 182 38 7 4 5 28 -4 70 -8 35 -11 67 -7 71 4 4 29 14 55 24 132 48 189 148 158 275 -16 67 -61 128 -113 152 -59 27 -175 24 -305 -8z m213 -178 c21 -50 0 -95 -45 -95 -8 0 -17 26 -34 103 -6 26 -4 27 29 27 32 0 38 -4 50 -35z" fill="#006cf7" stroke="#006cf7" />
<path d="M4873 7213 l-109 -288 30 -13 c16 -8 58 -24 92 -37 l63 -24 39 101 39 101 23 -94 c12 -52 25 -99 29 -105 4 -8 36 10 90 48 45 33 84 58 86 56 1 -2 -13 -43 -31 -92 -19 -49 -33 -94 -31 -99 2 -6 41 -25 88 -42 63 -25 86 -29 91 -20 11 17 207 534 210 552 2 10 -21 24 -72 43 l-75 28 -114 -80 c-62 -44 -114 -78 -116 -76 -2 2 -19 64 -37 137 l-33 134 -75 28 c-41 16 -75 29 -76 29 0 0 -50 -129 -111 -287z" fill="#006cf7" stroke="#006cf7" />
<path d="M2553 7325 l-93 -44 0 -65 c0 -36 -4 -67 -8 -70 -5 -3 -32 10 -60 29 -28 19 -56 35 -62 35 -22 0 -192 -92 -184 -99 5 -5 78 -57 162 -116 l153 -107 60 -119 c32 -66 61 -119 64 -119 5 0 167 80 173 85 2 2 -24 57 -58 124 l-60 121 5 143 c3 78 8 166 10 195 3 28 2 52 -2 51 -5 0 -50 -20 -100 -44z" fill="#006cf7" stroke="#006cf7" />
<path d="M5703 7059 c-67 -26 -137 -94 -170 -166 -54 -117 -27 -269 64 -360 61 -61 124 -87 220 -91 71 -4 88 -1 142 23 67 30 126 87 163 157 19 36 23 58 23 138 0 84 -3 101 -27 145 -35 65 -90 118 -158 149 -71 33 -179 35 -257 5z m208 -205 c16 -16 34 -45 41 -65 9 -31 8 -43 -8 -75 -21 -44 -75 -84 -111 -84 -70 0 -133 61 -133 130 0 109 134 168 211 94z" fill="#006cf7" stroke="#006cf7" />
<path d="M1925 6968 c-38 -27 -76 -53 -84 -57 -10 -6 26 -68 154 -257 92 -137 171 -252 175 -257 3 -4 77 40 163 98 l158 106 -43 60 c-23 33 -46 63 -51 66 -5 3 -38 -15 -75 -40 l-65 -46 -114 167 c-62 92 -121 177 -131 188 l-17 22 -70 -50z" fill="#006cf7" stroke="#006cf7" />
<path d="M6280 6715 l-54 -55 37 -38 c20 -21 37 -41 37 -46 0 -4 -66 -77 -147 -162 -82 -85 -149 -158 -150 -162 -3 -8 24 -40 90 -102 l48 -45 159 165 158 165 40 -39 40 -39 56 59 55 59 -152 147 c-84 81 -154 147 -157 148 -3 0 -30 -25 -60 -55z" fill="#006cf7" stroke="#006cf7" />
<path d="M1490 6611 l-75 -69 21 -24 c105 -119 398 -428 404 -426 4 2 63 55 130 118 67 63 127 118 133 122 9 5 -88 128 -102 128 -3 0 -32 -26 -64 -57 l-58 -58 -52 55 c-29 30 -99 106 -157 167 l-105 112 -75 -68z" fill="#006cf7" stroke="#006cf7" />
<path d="M1236 6344 c-32 -42 -54 -79 -49 -83 5 -3 80 -61 166 -129 168 -132 180 -149 137 -192 -35 -35 -26 -40 -278 157 -52 40 -98 73 -102 73 -10 0 -120 -138 -120 -149 1 -13 331 -262 372 -281 118 -53 255 16 324 164 39 84 26 180 -34 243 -30 31 -340 273 -350 273 -4 0 -34 -34 -66 -76z" fill="#006cf7" stroke="#006cf7" />
<path d="M6488 6207 c-125 -100 -232 -187 -237 -192 -7 -7 26 -56 100 -150 61 -77 114 -141 118 -143 4 -1 35 19 68 46 l61 48 -53 69 -53 68 25 21 26 20 26 -30 c14 -16 38 -44 52 -63 l27 -34 60 49 60 48 -51 64 -51 65 23 18 c13 11 26 19 30 19 3 -1 26 -27 51 -60 25 -33 49 -59 54 -60 7 0 37 23 119 90 7 6 -206 283 -221 287 -4 1 -109 -80 -234 -180z" fill="#006cf7" stroke="#006cf7" />
<path d="M6795 5809 c-143 -78 -264 -145 -269 -149 -4 -5 11 -43 34 -87 121 -221 211 -292 354 -281 108 9 230 89 268 176 25 56 30 137 13 204 -14 51 -105 240 -129 265 -9 10 -69 -19 -271 -128z m225 -200 c0 -36 -5 -52 -25 -72 -39 -38 -92 -60 -129 -53 -34 6 -105 70 -92 83 4 4 55 33 114 65 122 65 132 64 132 -23z" fill="#006cf7" stroke="#006cf7" />
<path d="M824 5739 c-47 -88 -85 -161 -83 -163 2 -2 124 -69 271 -149 l268 -145 45 82 c25 46 45 86 45 89 0 3 -30 23 -67 43 -38 20 -82 45 -100 56 l-31 19 38 69 c42 77 44 71 -39 116 -61 33 -60 33 -107 -58 -26 -50 -38 -57 -69 -34 -17 13 -17 16 18 79 21 36 37 69 37 74 0 4 -31 25 -70 45 l-69 38 -87 -161z" fill="#006cf7" stroke="#006cf7" />
<path d="M2084 5828 c-298 -304 -541 -740 -648 -1164 -205 -811 -33 -1634 482 -2304 96 -125 349 -373 482 -472 377 -282 790 -449 1285 -520 151 -21 531 -16 704 11 151 23 359 73 476 115 l70 25 -487 0 -488 1 0 1235 0 1235 -410 0 -410 0 0 -650 0 -650 -490 0 -490 0 -2 1605 -3 1606 -71 -73z" fill="#006cf7" stroke="#006cf7" />
</g>
<metadata fill="#4decfd" stroke="#4decfd">
Created by potrace 1.16, written by Peter Selinger 2001-2019
</metadata>
<g transform="translate(0.000000,800.000000) scale(0.100000,-0.100000)" fill="#4decfd" stroke="#4decfd">
<path d="M3733 7993 c9 -2 23 -2 30 0 6 3 -1 5 -18 5 -16 0 -22 -2 -12 -5z" fill="#4decfd" stroke="#4decfd" />
<path d="M4243 7993 c9 -2 23 -2 30 0 6 3 -1 5 -18 5 -16 0 -22 -2 -12 -5z" fill="#4decfd" stroke="#4decfd" />
<path d="M3608 7983 c6 -2 18 -2 25 0 6 3 1 5 -13 5 -14 0 -19 -2 -12 -5z" fill="#4decfd" stroke="#4decfd" />
<path d="M4368 7983 c6 -2 18 -2 25 0 6 3 1 5 -13 5 -14 0 -19 -2 -12 -5z" fill="#4decfd" stroke="#4decfd" />
<path d="M3518 7973 c7 -3 16 -2 19 1 4 3 -2 6 -13 5 -11 0 -14 -3 -6 -6z" fill="#4decfd" stroke="#4decfd" />
<path d="M4468 7973 c7 -3 16 -2 19 1 4 3 -2 6 -13 5 -11 0 -14 -3 -6 -6z" fill="#4decfd" stroke="#4decfd" />
<path d="M3953 7943 c26 -2 68 -2 95 0 26 2 4 3 -48 3 -52 0 -74 -1 -47 -3z" fill="#4decfd" stroke="#4decfd" />
<path d="M3723 7933 c9 -2 23 -2 30 0 6 3 -1 5 -18 5 -16 0 -22 -2 -12 -5z" fill="#4decfd" stroke="#4decfd" />
<path d="M4253 7933 c9 -2 23 -2 30 0 6 3 -1 5 -18 5 -16 0 -22 -2 -12 -5z" fill="#4decfd" stroke="#4decfd" />
<path d="M4728 7933 c7 -3 16 -2 19 1 4 3 -2 6 -13 5 -11 0 -14 -3 -6 -6z" fill="#4decfd" stroke="#4decfd" />
<path d="M3598 7923 c6 -2 18 -2 25 0 6 3 1 5 -13 5 -14 0 -19 -2 -12 -5z" fill="#4decfd" stroke="#4decfd" />
<path d="M4378 7923 c7 -3 16 -2 19 1 4 3 -2 6 -13 5 -11 0 -14 -3 -6 -6z" fill="#4decfd" stroke="#4decfd" />
<path d="M3518 7913 c7 -3 16 -2 19 1 4 3 -2 6 -13 5 -11 0 -14 -3 -6 -6z" fill="#4decfd" stroke="#4decfd" />
<path d="M4468 7913 c7 -3 16 -2 19 1 4 3 -2 6 -13 5 -11 0 -14 -3 -6 -6z" fill="#4decfd" stroke="#4decfd" />
<path d="M4608 7893 c7 -3 16 -2 19 1 4 3 -2 6 -13 5 -11 0 -14 -3 -6 -6z" fill="#4decfd" stroke="#4decfd" />
<path d="M3773 7613 c15 -2 39 -2 55 0 15 2 2 4 -28 4 -30 0 -43 -2 -27 -4z" fill="#4decfd" stroke="#4decfd" />
<path d="M3583 7603 c9 -2 23 -2 30 0 6 3 -1 5 -18 5 -16 0 -22 -2 -12 -5z" fill="#4decfd" stroke="#4decfd" />
<path d="M4448 7603 c6 -2 18 -2 25 0 6 3 1 5 -13 5 -14 0 -19 -2 -12 -5z" fill="#4decfd" stroke="#4decfd" />
<path d="M3238 7533 c18 -2 45 -2 60 0 15 2 0 4 -33 4 -33 0 -45 -2 -27 -4z" fill="#4decfd" stroke="#4decfd" />
<path d="M3572 7460 c0 -19 2 -27 5 -17 2 9 2 25 0 35 -3 9 -5 1 -5 -18z" fill="#4decfd" stroke="#4decfd" />
<path d="M3788 7443 c7 -3 16 -2 19 1 4 3 -2 6 -13 5 -11 0 -14 -3 -6 -6z" fill="#4decfd" stroke="#4decfd" />
<path d="M4073 7375 c0 -22 2 -30 4 -17 2 12 2 30 0 40 -3 9 -5 -1 -4 -23z" fill="#4decfd" stroke="#4decfd" />
<path d="M4453 7403 c9 -2 23 -2 30 0 6 3 -1 5 -18 5 -16 0 -22 -2 -12 -5z" fill="#4decfd" stroke="#4decfd" />
<path d="M3782 7370 c0 -14 2 -19 5 -12 2 6 2 18 0 25 -3 6 -5 1 -5 -13z" fill="#4decfd" stroke="#4decfd" />
<path d="M4540 7376 c0 -2 8 -10 18 -17 15 -13 16 -12 3 4 -13 16 -21 21 -21 13z" fill="#4decfd" stroke="#4decfd" />
<path d="M3849 7333 c-13 -16 -12 -17 4 -4 9 7 17 15 17 17 0 8 -8 3 -21 -13z" fill="#4decfd" stroke="#4decfd" />
<path d="M4781 7334 c0 -11 3 -14 6 -6 3 7 2 16 -1 19 -3 4 -6 -2 -5 -13z" fill="#4decfd" stroke="#4decfd" />
<path d="M2653 7285 c0 -27 2 -38 4 -22 2 15 2 37 0 50 -2 12 -4 0 -4 -28z" fill="#4decfd" stroke="#4decfd" />
<path d="M3583 7275 c0 -22 2 -30 4 -17 2 12 2 30 0 40 -3 9 -5 -1 -4 -23z" fill="#4decfd" stroke="#4decfd" />
<path d="M2453 7200 c0 -30 2 -43 4 -27 2 15 2 39 0 55 -2 15 -4 2 -4 -28z" fill="#4decfd" stroke="#4decfd" />
<path d="M3792 7110 c0 -14 2 -19 5 -12 2 6 2 18 0 25 -3 6 -5 1 -5 -13z" fill="#4decfd" stroke="#4decfd" />
<path d="M3593 7085 c0 -22 2 -30 4 -17 2 12 2 30 0 40 -3 9 -5 -1 -4 -23z" fill="#4decfd" stroke="#4decfd" />
<path d="M1539 7083 c-13 -16 -12 -17 4 -4 16 13 21 21 13 21 -2 0 -10 -8 -17 -17z" fill="#4decfd" stroke="#4decfd" />
<path d="M5803 7083 c15 -2 37 -2 50 0 12 2 0 4 -28 4 -27 0 -38 -2 -22 -4z" fill="#4decfd" stroke="#4decfd" />
<path d="M2643 7035 c0 -27 2 -38 4 -22 2 15 2 37 0 50 -2 12 -4 0 -4 -28z" fill="#4decfd" stroke="#4decfd" />
<path d="M4225 7050 c10 -11 20 -20 23 -20 3 0 -3 9 -13 20 -10 11 -20 20 -23 20 -3 0 3 -9 13 -20z" fill="#4decfd" stroke="#4decfd" />
<path d="M1339 6993 c-13 -16 -12 -17 4 -4 16 13 21 21 13 21 -2 0 -10 -8 -17 -17z" fill="#4decfd" stroke="#4decfd" />
<path d="M3785 7000 c-16 -7 -17 -9 -3 -9 9 -1 20 4 23 9 7 11 7 11 -20 0z" fill="#4decfd" stroke="#4decfd" />
<path d="M4028 7003 c12 -2 30 -2 40 0 9 3 -1 5 -23 4 -22 0 -30 -2 -17 -4z" fill="#4decfd" stroke="#4decfd" />
<path d="M6055 6990 c10 -11 20 -20 23 -20 3 0 -3 9 -13 20 -10 11 -20 20 -23 20 -3 0 3 -9 13 -20z" fill="#4decfd" stroke="#4decfd" />
<path d="M6640 7006 c0 -2 8 -10 18 -17 15 -13 16 -12 3 4 -13 16 -21 21 -21 13z" fill="#4decfd" stroke="#4decfd" />
<path d="M1419 6983 c-13 -16 -12 -17 4 -4 9 7 17 15 17 17 0 8 -8 3 -21 -13z" fill="#4decfd" stroke="#4decfd" />
<path d="M3613 6983 c9 -2 23 -2 30 0 6 3 -1 5 -18 5 -16 0 -22 -2 -12 -5z" fill="#4decfd" stroke="#4decfd" />
<path d="M3668 6983 c6 -2 18 -2 25 0 6 3 1 5 -13 5 -14 0 -19 -2 -12 -5z" fill="#4decfd" stroke="#4decfd" />
<path d="M4418 6953 c7 -3 16 -2 19 1 4 3 -2 6 -13 5 -11 0 -14 -3 -6 -6z" fill="#4decfd" stroke="#4decfd" />
<path d="M4498 6953 c7 -3 16 -2 19 1 4 3 -2 6 -13 5 -11 0 -14 -3 -6 -6z" fill="#4decfd" stroke="#4decfd" />
<path d="M5235 6950 c-3 -6 1 -7 9 -4 18 7 21 14 7 14 -6 0 -13 -4 -16 -10z" fill="#4decfd" stroke="#4decfd" />
<path d="M1334 6908 l-19 -23 23 19 c21 18 27 26 19 26 -2 0 -12 -10 -23 -22z" fill="#4decfd" stroke="#4decfd" />
<path d="M6655 6910 c10 -11 20 -20 23 -20 3 0 -3 9 -13 20 -10 11 -20 20 -23 20 -3 0 3 -9 13 -20z" fill="#4decfd" stroke="#4decfd" />
<path d="M1165 6828 l-80 -83 83 80 c45 44 82 81 82 82 0 8 -11 -3 -85 -79z" fill="#4decfd" stroke="#4decfd" />
<path d="M6825 6830 c44 -44 82 -80 85 -80 2 0 -31 36 -75 80 -44 44 -82 80 -85 80 -2 0 31 -36 75 -80z" fill="#4decfd" stroke="#4decfd" />
<path d="M5734 6848 l-19 -23 23 19 c12 11 22 21 22 23 0 8 -8 2 -26 -19z" fill="#4decfd" stroke="#4decfd" />
<path d="M5502 6800 c0 -14 2 -19 5 -12 2 6 2 18 0 25 -3 6 -5 1 -5 -13z" fill="#4decfd" stroke="#4decfd" />
<path d="M6152 6765 c0 -16 2 -22 5 -12 2 9 2 23 0 30 -3 6 -5 -1 -5 -18z" fill="#4decfd" stroke="#4decfd" />
<path d="M5180 6771 c0 -6 4 -13 10 -16 6 -3 7 1 4 9 -7 18 -14 21 -14 7z" fill="#4decfd" stroke="#4decfd" />
<path d="M5952 6760 c0 -14 2 -19 5 -12 2 6 2 18 0 25 -3 6 -5 1 -5 -13z" fill="#4decfd" stroke="#4decfd" />
<path d="M5502 6720 c0 -14 2 -19 5 -12 2 6 2 18 0 25 -3 6 -5 1 -5 -13z" fill="#4decfd" stroke="#4decfd" />
<path d="M6465 6650 c33 -33 62 -60 64 -60 3 0 -21 27 -54 60 -33 33 -62 60 -64 60 -3 0 21 -27 54 -60z" fill="#4decfd" stroke="#4decfd" />
<path d="M5735 6670 c10 -11 20 -20 23 -20 3 0 -3 9 -13 20 -10 11 -20 20 -23 20 -3 0 3 -9 13 -20z" fill="#4decfd" stroke="#4decfd" />
<path d="M6900 6665 c13 -14 26 -25 28 -25 3 0 -5 11 -18 25 -13 14 -26 25 -28 25 -3 0 5 -11 18 -25z" fill="#4decfd" stroke="#4decfd" />
<path d="M1084 6658 l-19 -23 23 19 c21 18 27 26 19 26 -2 0 -12 -10 -23 -22z" fill="#4decfd" stroke="#4decfd" />
<path d="M999 6653 c-13 -16 -12 -17 4 -4 16 13 21 21 13 21 -2 0 -10 -8 -17 -17z" fill="#4decfd" stroke="#4decfd" />
<path d="M6980 6666 c0 -2 8 -10 18 -17 15 -13 16 -12 3 4 -13 16 -21 21 -21 13z" fill="#4decfd" stroke="#4decfd" />
<path d="M6255 6620 c21 -22 41 -40 44 -40 3 0 -13 18 -34 40 -21 22 -41 40 -44 40 -3 0 13 -18 34 -40z" fill="#4decfd" stroke="#4decfd" />
<path d="M1504 6628 l-19 -23 23 19 c21 18 27 26 19 26 -2 0 -12 -10 -23 -22z" fill="#4decfd" stroke="#4decfd" />
<path d="M3810 6643 c-113 -8 -337 -46 -460 -77 -446 -113 -897 -367 -1225 -691 -26 -25 -28 -28 -5 -7 l36 32 907 0 907 0 0 -400 0 -400 -415 0 -415 0 0 -169 0 -170 1028 -4 c565 -2 1043 -7 1062 -11 19 -4 78 -14 130 -23 503 -82 847 -370 955 -797 71 -280 42 -642 -70 -873 -102 -210 -248 -355 -470 -467 -197 -99 -414 -149 -710 -165 l-120 -6 -3 -443 c-1 -300 -6 -442 -13 -442 -5 0 -7 -5 -4 -10 4 -7 11 -7 18 -2 7 5 44 21 82 36 185 72 482 251 650 391 390 324 666 721 825 1182 309 897 130 1859 -483 2589 -85 102 -256 269 -362 353 -279 223 -667 415 -1010 500 -262 65 -579 93 -835 74z" fill="#4decfd" stroke="#4decfd" />
<path d="M1670 6565 c13 -14 26 -25 28 -25 3 0 -5 11 -18 25 -13 14 -26 25 -28 25 -3 0 5 -11 18 -25z" fill="#4decfd" stroke="#4decfd" />
<path d="M6970 6586 c0 -2 8 -10 18 -17 15 -13 16 -12 3 4 -13 16 -21 21 -21 13z" fill="#4decfd" stroke="#4decfd" />
<path d="M6259 6533 l-34 -38 38 34 c34 33 42 41 34 41 -2 0 -19 -17 -38 -37z" fill="#4decfd" stroke="#4decfd" />
<path d="M1410 6543 c0 -5 12 -20 28 -34 l27 -24 -25 30 c-14 17 -26 32 -27 34 -2 2 -3 0 -3 -6z" fill="#4decfd" stroke="#4decfd" />
<path d="M6049 6523 l-24 -28 28 24 c25 23 32 31 24 31 -2 0 -14 -12 -28 -27z" fill="#4decfd" stroke="#4decfd" />
<path d="M949 6503 c-13 -16 -12 -17 4 -4 16 13 21 21 13 21 -2 0 -10 -8 -17 -17z" fill="#4decfd" stroke="#4decfd" />
<path d="M909 6453 c-13 -16 -12 -17 4 -4 16 13 21 21 13 21 -2 0 -10 -8 -17 -17z" fill="#4decfd" stroke="#4decfd" />
<path d="M6600 6425 c-24 -25 -42 -45 -39 -45 3 0 25 20 49 45 24 25 42 45 39 45 -3 0 -25 -20 -49 -45z" fill="#4decfd" stroke="#4decfd" />
<path d="M1795 6430 c10 -11 20 -20 23 -20 3 0 -3 9 -13 20 -10 11 -20 20 -23 20 -3 0 3 -9 13 -20z" fill="#4decfd" stroke="#4decfd" />
<path d="M5808 6433 c12 -2 32 -2 45 0 12 2 2 4 -23 4 -25 0 -35 -2 -22 -4z" fill="#4decfd" stroke="#4decfd" />
<path d="M6490 6395 c19 -19 36 -35 39 -35 3 0 -10 16 -29 35 -19 19 -36 35 -39 35 -3 0 10 -16 29 -35z" fill="#4decfd" stroke="#4decfd" />
<path d="M2070 6385 c13 -14 26 -25 28 -25 3 0 -5 11 -18 25 -13 14 -26 25 -28 25 -3 0 5 -11 18 -25z" fill="#4decfd" stroke="#4decfd" />
<path d="M1555 6380 c10 -11 20 -20 23 -20 3 0 -3 9 -13 20 -10 11 -20 20 -23 20 -3 0 3 -9 13 -20z" fill="#4decfd" stroke="#4decfd" />
<path d="M1899 6373 l-24 -28 28 24 c25 23 32 31 24 31 -2 0 -14 -12 -28 -27z" fill="#4decfd" stroke="#4decfd" />
<path d="M6069 6333 l-34 -38 38 34 c34 33 42 41 34 41 -2 0 -19 -17 -38 -37z" fill="#4decfd" stroke="#4decfd" />
<path d="M6325 6298 l-60 -63 63 60 c58 55 67 65 59 65 -1 0 -29 -28 -62 -62z" fill="#4decfd" stroke="#4decfd" />
<path d="M2064 6298 l-29 -33 33 29 c17 17 32 31 32 33 0 8 -8 1 -36 -29z" fill="#4decfd" stroke="#4decfd" />
<path d="M6780 6316 c0 -2 8 -10 18 -17 15 -13 16 -12 3 4 -13 16 -21 21 -21 13z" fill="#4decfd" stroke="#4decfd" />
<path d="M6579 6283 c-13 -16 -12 -17 4 -4 16 13 21 21 13 21 -2 0 -10 -8 -17 -17z" fill="#4decfd" stroke="#4decfd" />
<path d="M1680 6245 c13 -14 26 -25 28 -25 3 0 -5 11 -18 25 -13 14 -26 25 -28 25 -3 0 5 -11 18 -25z" fill="#4decfd" stroke="#4decfd" />
<path d="M6820 6266 c0 -2 8 -10 18 -17 15 -13 16 -12 3 4 -13 16 -21 21 -21 13z" fill="#4decfd" stroke="#4decfd" />
<path d="M6529 6243 c-13 -16 -12 -17 4 -4 16 13 21 21 13 21 -2 0 -10 -8 -17 -17z" fill="#4decfd" stroke="#4decfd" />
<path d="M5990 6246 c0 -2 8 -10 18 -17 15 -13 16 -12 3 4 -13 16 -21 21 -21 13z" fill="#4decfd" stroke="#4decfd" />
<path d="M6479 6203 c-13 -16 -12 -17 4 -4 9 7 17 15 17 17 0 8 -8 3 -21 -13z" fill="#4decfd" stroke="#4decfd" />
<path d="M1929 6173 l-24 -28 28 24 c25 23 32 31 24 31 -2 0 -14 -12 -28 -27z" fill="#4decfd" stroke="#4decfd" />
<path d="M1610 6186 c0 -2 8 -10 18 -17 15 -13 16 -12 3 4 -13 16 -21 21 -21 13z" fill="#4decfd" stroke="#4decfd" />
<path d="M6080 6155 c19 -19 36 -35 39 -35 3 0 -10 16 -29 35 -19 19 -36 35 -39 35 -3 0 10 -16 29 -35z" fill="#4decfd" stroke="#4decfd" />
<path d="M1089 6163 c-13 -16 -12 -17 3 -5 9 8 23 10 29 6 8 -4 9 -3 5 4 -10 17 -21 15 -37 -5z" fill="#4decfd" stroke="#4decfd" />
<path d="M6164 6128 l-29 -33 33 29 c17 17 32 31 32 33 0 8 -8 1 -36 -29z" fill="#4decfd" stroke="#4decfd" />
<path d="M1810 6105 c13 -14 26 -25 28 -25 3 0 -5 11 -18 25 -13 14 -26 25 -28 25 -3 0 5 -11 18 -25z" fill="#4decfd" stroke="#4decfd" />
<path d="M6909 6073 c-13 -16 -12 -17 4 -4 9 7 17 15 17 17 0 8 -8 3 -21 -13z" fill="#4decfd" stroke="#4decfd" />
<path d="M6700 6046 c0 -2 8 -10 18 -17 15 -13 16 -12 3 4 -13 16 -21 21 -21 13z" fill="#4decfd" stroke="#4decfd" />
<path d="M1485 6020 c10 -11 20 -20 23 -20 3 0 -3 9 -13 20 -10 11 -20 20 -23 20 -3 0 3 -9 13 -20z" fill="#4decfd" stroke="#4decfd" />
<path d="M1000 6006 c0 -2 8 -10 18 -17 15 -13 16 -12 3 4 -13 16 -21 21 -21 13z" fill="#4decfd" stroke="#4decfd" />
<path d="M6740 5996 c0 -2 8 -10 18 -17 15 -13 16 -12 3 4 -13 16 -21 21 -21 13z" fill="#4decfd" stroke="#4decfd" />
<path d="M6560 5966 c0 -2 8 -10 18 -17 15 -13 16 -12 3 4 -13 16 -21 21 -21 13z" fill="#4decfd" stroke="#4decfd" />
<path d="M6270 5956 c0 -2 8 -10 18 -17 15 -13 16 -12 3 4 -13 16 -21 21 -21 13z" fill="#4decfd" stroke="#4decfd" />
<path d="M6600 5916 c0 -2 8 -10 18 -17 15 -13 16 -12 3 4 -13 16 -21 21 -21 13z" fill="#4decfd" stroke="#4decfd" />
<path d="M6310 5906 c0 -2 8 -10 18 -17 15 -13 16 -12 3 4 -13 16 -21 21 -21 13z" fill="#4decfd" stroke="#4decfd" />
<path d="M6540 5886 c0 -2 8 -10 18 -17 15 -13 16 -12 3 4 -13 16 -21 21 -21 13z" fill="#4decfd" stroke="#4decfd" />
<path d="M6350 5856 c0 -2 8 -10 18 -17 15 -13 16 -12 3 4 -13 16 -21 21 -21 13z" fill="#4decfd" stroke="#4decfd" />
<path d="M7201 5534 c0 -11 3 -14 6 -6 3 7 2 16 -1 19 -3 4 -6 -2 -5 -13z" fill="#4decfd" stroke="#4decfd" />
<path d="M6873 5483 c9 -2 23 -2 30 0 6 3 -1 5 -18 5 -16 0 -22 -2 -12 -5z" fill="#4decfd" stroke="#4decfd" />
<path d="M6640 5426 c0 -2 8 -10 18 -17 15 -13 16 -12 3 4 -13 16 -21 21 -21 13z" fill="#4decfd" stroke="#4decfd" />
<path d="M7124 5388 l-19 -23 23 19 c21 18 27 26 19 26 -2 0 -12 -10 -23 -22z" fill="#4decfd" stroke="#4decfd" />
<path d="M6710 5356 c0 -2 8 -10 18 -17 15 -13 16 -12 3 4 -13 16 -21 21 -21 13z" fill="#4decfd" stroke="#4decfd" />
<path d="M6878 5283 c6 -2 18 -2 25 0 6 3 1 5 -13 5 -14 0 -19 -2 -12 -5z" fill="#4decfd" stroke="#4decfd" />
<path d="M61 4734 c0 -11 3 -14 6 -6 3 7 2 16 -1 19 -3 4 -6 -2 -5 -13z" fill="#4decfd" stroke="#4decfd" />
<path d="M21 4474 c0 -11 3 -14 6 -6 3 7 2 16 -1 19 -3 4 -6 -2 -5 -13z" fill="#4decfd" stroke="#4decfd" />
<path d="M81 4474 c0 -11 3 -14 6 -6 3 7 2 16 -1 19 -3 4 -6 -2 -5 -13z" fill="#4decfd" stroke="#4decfd" />
<path d="M7911 4474 c0 -11 3 -14 6 -6 3 7 2 16 -1 19 -3 4 -6 -2 -5 -13z" fill="#4decfd" stroke="#4decfd" />
<path d="M7971 4474 c0 -11 3 -14 6 -6 3 7 2 16 -1 19 -3 4 -6 -2 -5 -13z" fill="#4decfd" stroke="#4decfd" />
<path d="M7922 4390 c0 -14 2 -19 5 -12 2 6 2 18 0 25 -3 6 -5 1 -5 -13z" fill="#4decfd" stroke="#4decfd" />
<path d="M12 4380 c0 -14 2 -19 5 -12 2 6 2 18 0 25 -3 6 -5 1 -5 -13z" fill="#4decfd" stroke="#4decfd" />
<path d="M71 4384 c0 -11 3 -14 6 -6 3 7 2 16 -1 19 -3 4 -6 -2 -5 -13z" fill="#4decfd" stroke="#4decfd" />
<path d="M7982 4380 c0 -14 2 -19 5 -12 2 6 2 18 0 25 -3 6 -5 1 -5 -13z" fill="#4decfd" stroke="#4decfd" />
<path d="M1361 4294 c0 -11 3 -14 6 -6 3 7 2 16 -1 19 -3 4 -6 -2 -5 -13z" fill="#4decfd" stroke="#4decfd" />
<path d="M62 4265 c0 -16 2 -22 5 -12 2 9 2 23 0 30 -3 6 -5 -1 -5 -18z" fill="#4decfd" stroke="#4decfd" />
<path d="M7932 4265 c0 -16 2 -22 5 -12 2 9 2 23 0 30 -3 6 -5 -1 -5 -18z" fill="#4decfd" stroke="#4decfd" />
<path d="M2 4255 c0 -16 2 -22 5 -12 2 9 2 23 0 30 -3 6 -5 -1 -5 -18z" fill="#4decfd" stroke="#4decfd" />
<path d="M7992 4255 c0 -16 2 -22 5 -12 2 9 2 23 0 30 -3 6 -5 -1 -5 -18z" fill="#4decfd" stroke="#4decfd" />
<path d="M1352 4175 c0 -16 2 -22 5 -12 2 9 2 23 0 30 -3 6 -5 -1 -5 -18z" fill="#4decfd" stroke="#4decfd" />
<path d="M54 4000 c0 -52 1 -74 3 -47 2 26 2 68 0 95 -2 26 -3 4 -3 -48z" fill="#4decfd" stroke="#4decfd" />
<path d="M7944 4000 c0 -52 1 -74 3 -47 2 26 2 68 0 95 -2 26 -3 4 -3 -48z" fill="#4decfd" stroke="#4decfd" />
<path d="M3343 3993 c114 -2 300 -2 415 0 114 1 20 2 -208 2 -228 0 -322 -1 -207 -2z" fill="#4decfd" stroke="#4decfd" />
<path d="M4940 3589 l0 -342 93 5 c116 6 182 33 237 95 56 64 75 127 74 248 0 108 -16 162 -70 232 -46 60 -164 103 -286 103 l-48 0 0 -341z" fill="#4decfd" stroke="#4decfd" />
<path d="M1352 3825 c0 -16 2 -22 5 -12 2 9 2 23 0 30 -3 6 -5 -1 -5 -18z" fill="#4decfd" stroke="#4decfd" />
<path d="M2 3745 c0 -16 2 -22 5 -12 2 9 2 23 0 30 -3 6 -5 -1 -5 -18z" fill="#4decfd" stroke="#4decfd" />
<path d="M7992 3745 c0 -16 2 -22 5 -12 2 9 2 23 0 30 -3 6 -5 -1 -5 -18z" fill="#4decfd" stroke="#4decfd" />
<path d="M62 3735 c0 -16 2 -22 5 -12 2 9 2 23 0 30 -3 6 -5 -1 -5 -18z" fill="#4decfd" stroke="#4decfd" />
<path d="M7932 3735 c0 -16 2 -22 5 -12 2 9 2 23 0 30 -3 6 -5 -1 -5 -18z" fill="#4decfd" stroke="#4decfd" />
<path d="M1361 3704 c0 -11 3 -14 6 -6 3 7 2 16 -1 19 -3 4 -6 -2 -5 -13z" fill="#4decfd" stroke="#4decfd" />
<path d="M12 3620 c0 -14 2 -19 5 -12 2 6 2 18 0 25 -3 6 -5 1 -5 -13z" fill="#4decfd" stroke="#4decfd" />
<path d="M7982 3620 c0 -14 2 -19 5 -12 2 6 2 18 0 25 -3 6 -5 1 -5 -13z" fill="#4decfd" stroke="#4decfd" />
<path d="M72 3610 c0 -14 2 -19 5 -12 2 6 2 18 0 25 -3 6 -5 1 -5 -13z" fill="#4decfd" stroke="#4decfd" />
<path d="M7921 3614 c0 -11 3 -14 6 -6 3 7 2 16 -1 19 -3 4 -6 -2 -5 -13z" fill="#4decfd" stroke="#4decfd" />
<path d="M7263 3599 c-12 -4 -31 -26 -43 -49 -11 -22 -25 -40 -31 -40 -16 0 -23 31 -11 50 9 14 8 21 -5 31 -22 19 -43 -13 -43 -68 0 -34 5 -46 25 -59 36 -24 70 -11 97 36 25 43 38 49 58 25 9 -11 8 -20 -6 -45 -16 -27 -17 -32 -3 -45 14 -14 17 -14 33 4 29 32 32 101 7 132 -24 31 -48 39 -78 28z" fill="#4decfd" stroke="#4decfd" />
<path d="M1381 3564 c0 -11 3 -14 6 -6 3 7 2 16 -1 19 -3 4 -6 -2 -5 -13z" fill="#4decfd" stroke="#4decfd" />
<path d="M21 3524 c0 -11 3 -14 6 -6 3 7 2 16 -1 19 -3 4 -6 -2 -5 -13z" fill="#4decfd" stroke="#4decfd" />
<path d="M81 3524 c0 -11 3 -14 6 -6 3 7 2 16 -1 19 -3 4 -6 -2 -5 -13z" fill="#4decfd" stroke="#4decfd" />
<path d="M7911 3524 c0 -11 3 -14 6 -6 3 7 2 16 -1 19 -3 4 -6 -2 -5 -13z" fill="#4decfd" stroke="#4decfd" />
<path d="M7971 3524 c0 -11 3 -14 6 -6 3 7 2 16 -1 19 -3 4 -6 -2 -5 -13z" fill="#4decfd" stroke="#4decfd" />
<path d="M910 3469 c-25 -4 -98 -18 -163 -30 -111 -20 -118 -23 -114 -43 3 -11 11 -48 17 -80 15 -76 44 -106 100 -106 43 0 90 33 90 64 0 13 4 13 29 0 26 -13 34 -13 65 0 38 16 56 41 56 80 0 36 -20 126 -28 125 -4 -1 -27 -5 -52 -10z m24 -114 c-16 -42 -75 -38 -89 6 -9 26 -4 31 42 38 31 6 39 3 45 -11 4 -10 5 -25 2 -33z m-140 9 c13 -33 6 -64 -18 -79 -42 -28 -67 -5 -80 72 -1 7 40 19 75 22 9 0 20 -6 23 -15z" fill="#4decfd" stroke="#4decfd" />
<path d="M7115 3401 c-5 -16 -12 -18 -45 -14 -39 6 -40 5 -40 -26 0 -24 4 -31 19 -31 30 0 51 -11 51 -26 0 -17 47 -19 52 -3 3 8 27 7 83 -4 83 -15 95 -12 95 25 0 19 -10 23 -102 39 -65 10 -68 12 -62 35 5 21 3 24 -19 24 -16 0 -28 -7 -32 -19z" fill="#4decfd" stroke="#4decfd" />
<path d="M7891 3384 c0 -11 3 -14 6 -6 3 7 2 16 -1 19 -3 4 -6 -2 -5 -13z" fill="#4decfd" stroke="#4decfd" />
<path d="M7931 3264 c0 -11 3 -14 6 -6 3 7 2 16 -1 19 -3 4 -6 -2 -5 -13z" fill="#4decfd" stroke="#4decfd" />
<path d="M7082 3243 c-30 -58 -16 -127 31 -158 86 -56 187 -3 187 98 0 29 -4 35 -25 39 -23 5 -25 2 -25 -28 0 -33 -36 -74 -65 -74 -23 0 -65 41 -65 64 0 12 7 31 15 43 13 19 13 22 -1 27 -27 10 -43 7 -52 -11z" fill="#4decfd" stroke="#4decfd" />
<path d="M820 3154 c-30 -9 -72 -20 -93 -25 -34 -9 -37 -12 -31 -37 4 -15 7 -28 8 -29 1 -1 29 5 63 14 79 20 112 12 120 -27 6 -30 25 -38 52 -21 11 7 11 13 1 32 -7 13 -20 28 -28 33 -10 6 -11 10 -3 16 18 10 3 60 -18 59 -9 0 -41 -7 -71 -15z" fill="#4decfd" stroke="#4decfd" />
<path d="M7026 3018 c-3 -13 -6 -26 -6 -30 0 -4 32 -17 71 -30 81 -26 99 -46 74 -84 -19 -29 -35 -30 -110 -4 -61 21 -68 19 -79 -16 -5 -18 2 -23 66 -43 96 -31 116 -30 149 7 51 57 51 140 -1 167 -22 11 -142 53 -156 55 -1 0 -4 -10 -8 -22z" fill="#4decfd" stroke="#4decfd" />
<path d="M840 2969 c-63 -26 -94 -91 -70 -150 7 -16 22 -35 33 -40 13 -8 16 -13 8 -18 -8 -6 -9 -15 -2 -33 l10 -26 104 36 104 37 -9 27 c-6 16 -15 28 -20 28 -6 0 -7 11 -4 25 9 37 -19 91 -59 109 -37 18 -59 19 -95 5z m85 -74 c30 -29 32 -66 5 -90 -41 -37 -110 -9 -110 45 0 26 20 52 50 63 25 9 30 8 55 -18z" fill="#4decfd" stroke="#4decfd" />
<path d="M6792 2805 c-11 -23 -9 -27 11 -34 12 -5 48 -20 79 -34 l58 -26 -30 -30 c-44 -43 -42 -101 3 -146 44 -44 95 -54 139 -28 43 25 70 76 57 110 -8 21 -7 24 6 19 11 -4 19 3 26 21 5 14 8 27 7 28 -6 6 -330 145 -337 145 -4 0 -13 -11 -19 -25z m261 -147 c21 -25 22 -47 1 -76 -31 -45 -114 -18 -114 37 1 65 69 89 113 39z" fill="#4decfd" stroke="#4decfd" />
<path d="M945 2669 c-49 -23 -91 -42 -93 -44 -7 -7 23 -55 32 -51 6 2 36 15 67 29 47 21 60 24 80 13 28 -14 36 -41 18 -62 -7 -9 -41 -28 -76 -44 -61 -28 -63 -29 -51 -55 13 -29 20 -28 113 17 33 15 66 36 73 45 22 30 14 72 -19 106 -18 17 -27 33 -21 35 12 4 -9 52 -23 51 -5 0 -50 -18 -100 -40z" fill="#4decfd" stroke="#4decfd" />
<path d="M6815 2458 c-55 -30 -84 -107 -61 -162 17 -41 68 -76 109 -76 108 0 168 151 87 223 -33 29 -96 37 -135 15z m97 -65 c38 -34 8 -113 -42 -113 -27 0 -70 43 -70 70 0 49 73 78 112 43z" fill="#4decfd" stroke="#4decfd" />
<path d="M1080 2423 c-28 -10 -59 -46 -71 -80 -9 -27 -7 -40 8 -70 10 -21 28 -43 40 -49 15 -7 19 -14 12 -21 -7 -7 -4 -17 8 -31 l18 -22 162 91 c158 88 162 91 151 115 -6 13 -15 24 -20 24 -5 0 -40 -18 -79 -40 -39 -22 -72 -40 -73 -40 -1 0 -2 16 -2 36 0 67 -82 113 -154 87z m92 -70 c26 -23 24 -78 -4 -97 -12 -9 -32 -16 -44 -16 -23 0 -64 42 -64 65 0 7 9 24 21 39 24 30 63 34 91 9z" fill="#4decfd" stroke="#4decfd" />
<path d="M1980 2276 c0 -2 8 -10 18 -17 15 -13 16 -12 3 4 -13 16 -21 21 -21 13z" fill="#4decfd" stroke="#4decfd" />
<path d="M6679 2249 c-6 -12 -9 -32 -6 -45 3 -20 1 -23 -13 -19 -11 4 -20 -3 -28 -20 -12 -25 -9 -28 80 -85 84 -54 92 -58 104 -42 20 26 17 40 -15 56 -79 41 -112 96 -76 126 14 12 14 15 -1 31 -22 24 -31 24 -45 -2z" fill="#4decfd" stroke="#4decfd" />
<path d="M2120 2125 c35 -36 67 -65 69 -65 3 0 -24 29 -59 65 -35 36 -67 65 -69 65 -3 0 24 -29 59 -65z" fill="#4decfd" stroke="#4decfd" />
<path d="M1219 2147 c-48 -32 -64 -84 -43 -137 20 -49 57 -80 95 -80 46 0 37 33 -16 60 -34 18 -46 68 -22 89 12 9 23 -1 63 -59 l48 -70 27 26 c34 33 43 66 29 110 -26 78 -112 107 -181 61z m119 -43 c22 -15 28 -48 13 -73 -6 -10 -16 -2 -39 32 -17 24 -28 47 -25 51 10 10 27 7 51 -10z" fill="#4decfd" stroke="#4decfd" />
<path d="M6471 2127 c-24 -12 -111 -111 -110 -125 0 -9 255 -202 267 -202 10 0 47 39 41 43 -2 2 -25 20 -51 41 l-48 38 21 29 c47 67 39 131 -23 169 -38 23 -63 25 -97 7z m73 -73 c21 -21 20 -47 -3 -75 l-19 -23 -38 29 c-22 15 -41 30 -43 32 -3 2 6 14 19 28 27 28 61 32 84 9z" fill="#4decfd" stroke="#4decfd" />
<path d="M2250 2006 c0 -2 8 -10 18 -17 15 -13 16 -12 3 4 -13 16 -21 21 -21 13z" fill="#4decfd" stroke="#4decfd" />
<path d="M1435 1942 c-52 -12 -95 -65 -95 -119 0 -39 34 -91 64 -99 14 -3 23 -11 20 -18 -3 -7 4 -20 15 -30 23 -21 4 -34 184 118 64 54 117 101 117 105 0 3 -7 15 -15 25 -14 18 -17 17 -69 -23 -30 -24 -60 -49 -67 -58 -11 -13 -15 -10 -24 22 -15 56 -72 90 -130 77z m77 -79 c27 -24 23 -68 -8 -92 -15 -12 -32 -21 -39 -21 -24 0 -65 41 -65 66 0 53 72 84 112 47z" fill="#4decfd" stroke="#4decfd" />
<path d="M6192 1868 c-7 -7 -12 -17 -12 -23 0 -13 247 -248 265 -253 6 -1 19 6 28 16 17 18 12 24 -117 146 -73 69 -138 126 -143 126 -5 0 -14 -5 -21 -12z" fill="#4decfd" stroke="#4decfd" />
<path d="M6218 1663 c-9 -10 -13 -24 -11 -30 3 -8 -4 -13 -19 -13 -27 0 -62 -32 -76 -71 -15 -38 -3 -77 35 -115 28 -29 41 -34 79 -34 37 0 51 6 75 29 16 16 29 40 29 52 0 18 3 20 12 11 9 -9 17 -7 35 10 l24 22 -78 78 c-43 43 -80 78 -84 78 -3 0 -13 -8 -21 -17z m56 -94 c31 -25 34 -61 6 -89 -41 -41 -110 -15 -110 42 0 32 31 68 59 68 10 0 30 -9 45 -21z" fill="#4decfd" stroke="#4decfd" />
<path d="M1855 1644 c-27 -13 -99 -47 -159 -74 l-109 -50 22 -24 c22 -23 24 -23 62 -8 l40 16 50 -50 c48 -48 49 -51 38 -82 -10 -30 -9 -36 12 -58 17 -18 25 -21 30 -12 3 7 32 87 64 177 56 157 57 165 40 177 -24 18 -31 17 -90 -12z m2 -123 l-23 -61 -39 33 -40 34 60 31 c33 16 61 29 63 28 1 -2 -8 -31 -21 -65z" fill="#4decfd" stroke="#4decfd" />
<path d="M7079 1543 c-13 -16 -12 -17 4 -4 16 13 21 21 13 21 -2 0 -10 -8 -17 -17z" fill="#4decfd" stroke="#4decfd" />
<path d="M7039 1493 c-13 -16 -12 -17 4 -4 16 13 21 21 13 21 -2 0 -10 -8 -17 -17z" fill="#4decfd" stroke="#4decfd" />
<path d="M5970 1447 c-14 -7 -32 -27 -42 -45 -10 -21 -19 -29 -23 -22 -5 8 -15 4 -31 -11 l-23 -22 61 -76 c34 -42 65 -80 69 -84 9 -11 49 10 49 24 0 6 -18 34 -40 61 -41 52 -49 85 -28 106 26 26 55 13 103 -49 47 -59 47 -60 69 -42 11 10 22 18 23 19 6 2 -90 120 -110 136 -26 21 -43 22 -77 5z" fill="#4decfd" stroke="#4decfd" />
<path d="M1000 1436 c0 -2 8 -10 18 -17 15 -13 16 -12 3 4 -13 16 -21 21 -21 13z" fill="#4decfd" stroke="#4decfd" />
<path d="M1917 1293 c-94 -129 -97 -136 -81 -154 9 -11 20 -19 24 -19 3 0 24 25 46 55 41 58 54 66 54 37 0 -10 12 -29 26 -43 36 -34 102 -34 139 1 37 33 58 85 50 121 -9 38 -59 79 -96 79 -19 0 -28 4 -24 11 7 10 -21 49 -34 49 -3 -1 -50 -62 -104 -137z m178 21 c24 -25 15 -73 -18 -98 -26 -19 -30 -19 -55 -5 -62 35 -47 119 23 119 18 0 41 -7 50 -16z" fill="#4decfd" stroke="#4decfd" />
<path d="M3558 1383 c7 -3 16 -2 19 1 4 3 -2 6 -13 5 -11 0 -14 -3 -6 -6z" fill="#4decfd" stroke="#4decfd" />
<path d="M4368 1373 c7 -3 16 -2 19 1 4 3 -2 6 -13 5 -11 0 -14 -3 -6 -6z" fill="#4decfd" stroke="#4decfd" />
<path d="M3698 1363 c7 -3 16 -2 19 1 4 3 -2 6 -13 5 -11 0 -14 -3 -6 -6z" fill="#4decfd" stroke="#4decfd" />
<path d="M4288 1363 c7 -3 16 -2 19 1 4 3 -2 6 -13 5 -11 0 -14 -3 -6 -6z" fill="#4decfd" stroke="#4decfd" />
<path d="M990 1356 c0 -2 8 -10 18 -17 15 -13 16 -12 3 4 -13 16 -21 21 -21 13z" fill="#4decfd" stroke="#4decfd" />
<path d="M1085 1340 c10 -11 20 -20 23 -20 3 0 -3 9 -13 20 -10 11 -20 20 -23 20 -3 0 3 -9 13 -20z" fill="#4decfd" stroke="#4decfd" />
<path d="M3813 1353 c9 -2 23 -2 30 0 6 3 -1 5 -18 5 -16 0 -22 -2 -12 -5z" fill="#4decfd" stroke="#4decfd" />
<path d="M4163 1353 c9 -2 23 -2 30 0 6 3 -1 5 -18 5 -16 0 -22 -2 -12 -5z" fill="#4decfd" stroke="#4decfd" />
<path d="M6904 1338 l-19 -23 23 19 c12 11 22 21 22 23 0 8 -8 2 -26 -19z" fill="#4decfd" stroke="#4decfd" />
<path d="M6989 1343 c-13 -16 -12 -17 4 -4 9 7 17 15 17 17 0 8 -8 3 -21 -13z" fill="#4decfd" stroke="#4decfd" />
<path d="M5708 1259 c-90 -47 -91 -172 -2 -214 51 -24 98 -13 146 35 31 31 38 45 38 76 0 99 -92 151 -182 103z m102 -59 c26 -26 25 -60 0 -88 -41 -43 -110 -13 -110 47 0 55 70 81 110 41z" fill="#4decfd" stroke="#4decfd" />
<path d="M5443 1244 c-8 -22 10 -49 32 -49 22 0 40 27 32 49 -8 21 -56 21 -64 0z" fill="#4decfd" stroke="#4decfd" />
<path d="M1165 1170 c44 -44 82 -80 85 -80 2 0 -31 36 -75 80 -44 44 -82 80 -85 80 -2 0 31 -36 75 -80z" fill="#4decfd" stroke="#4decfd" />
<path d="M2173 1110 c-46 -76 -83 -142 -83 -147 0 -4 10 -14 21 -22 24 -15 22 -17 67 61 27 48 42 60 42 35 0 -23 45 -58 81 -63 43 -6 77 12 106 55 51 75 10 171 -72 171 -23 0 -34 4 -30 11 7 11 -22 38 -40 38 -5 0 -47 -62 -92 -139z m181 28 c22 -31 20 -58 -6 -85 -27 -28 -57 -29 -86 -3 -44 41 -16 110 43 110 24 0 39 -7 49 -22z" fill="#4decfd" stroke="#4decfd" />
<path d="M6825 1168 l-80 -83 83 80 c76 74 87 85 79 85 -1 0 -38 -37 -82 -82z" fill="#4decfd" stroke="#4decfd" />
<path d="M5363 1147 c-26 -12 -28 -22 -8 -57 8 -16 10 -29 4 -36 -13 -16 0 -44 20 -44 11 0 30 -26 54 -75 36 -73 37 -74 62 -63 14 6 25 15 25 20 0 5 -16 41 -36 80 -28 56 -33 73 -22 79 7 5 16 9 20 9 4 0 3 11 -4 25 -9 20 -14 22 -30 14 -15 -8 -23 -7 -34 8 -7 10 -14 23 -14 30 0 18 -13 22 -37 10z" fill="#4decfd" stroke="#4decfd" />
<path d="M5521 1141 l-23 -18 52 -96 c50 -91 54 -95 76 -85 13 6 24 16 24 21 0 9 -71 144 -95 179 -10 15 -12 15 -34 -1z" fill="#4decfd" stroke="#4decfd" />
<path d="M1335 1090 c10 -11 20 -20 23 -20 3 0 -3 9 -13 20 -10 11 -20 20 -23 20 -3 0 3 -9 13 -20z" fill="#4decfd" stroke="#4decfd" />
<path d="M6654 1088 l-19 -23 23 19 c12 11 22 21 22 23 0 8 -8 2 -26 -19z" fill="#4decfd" stroke="#4decfd" />
<path d="M2509 1064 c-67 -43 -81 -129 -30 -186 23 -26 36 -33 69 -33 25 0 38 -4 35 -10 -2 -7 8 -17 22 -23 25 -12 26 -10 75 88 l49 100 -30 15 c-21 12 -29 12 -29 3 0 -7 -12 3 -27 21 -34 40 -93 51 -134 25z m108 -66 c28 -26 30 -61 3 -88 -41 -41 -110 -15 -110 42 0 33 31 68 62 68 12 0 32 -10 45 -22z" fill="#4decfd" stroke="#4decfd" />
<path d="M1330 1016 c0 -2 8 -10 18 -17 15 -13 16 -12 3 4 -13 16 -21 21 -21 13z" fill="#4decfd" stroke="#4decfd" />
<path d="M6649 1003 c-13 -16 -12 -17 4 -4 9 7 17 15 17 17 0 8 -8 3 -21 -13z" fill="#4decfd" stroke="#4decfd" />
<path d="M5193 991 c-66 -31 -90 -98 -58 -161 22 -42 53 -60 105 -60 90 0 154 73 131 150 -23 78 -99 108 -178 71z m99 -58 c26 -23 24 -78 -4 -97 -32 -22 -55 -20 -83 9 -30 29 -32 58 -5 85 24 24 67 26 92 3z" fill="#4decfd" stroke="#4decfd" />
<path d="M3211 819 c-23 -94 -41 -177 -41 -184 0 -16 50 -26 55 -11 3 6 23 87 45 180 42 176 42 185 -2 186 -13 0 -24 -35 -57 -171z" fill="#4decfd" stroke="#4decfd" />
<path d="M2786 972 c-20 -33 -76 -196 -69 -202 4 -5 17 -10 27 -12 15 -2 25 10 45 60 30 73 51 90 88 73 21 -10 28 -9 39 6 7 10 14 22 14 26 0 14 -45 25 -68 16 -30 -12 -32 -11 -26 4 5 14 -42 42 -50 29z" fill="#4decfd" stroke="#4decfd" />
<path d="M1530 926 c0 -2 8 -10 18 -17 15 -13 16 -12 3 4 -13 16 -21 21 -21 13z" fill="#4decfd" stroke="#4decfd" />
<path d="M6449 913 c-13 -16 -12 -17 4 -4 16 13 21 21 13 21 -2 0 -10 -8 -17 -17z" fill="#4decfd" stroke="#4decfd" />
<path d="M4928 879 c-22 -21 -34 -27 -41 -20 -19 19 -64 12 -95 -14 -17 -14 -32 -21 -34 -15 -2 8 -11 8 -30 1 l-26 -10 31 -106 c30 -104 31 -106 56 -100 14 4 27 8 29 10 1 1 -6 33 -16 71 -24 85 -16 117 25 112 25 -3 30 -10 52 -80 23 -74 26 -77 50 -71 14 3 27 7 28 8 2 0 -7 33 -18 73 -23 82 -16 112 27 112 27 0 34 -12 59 -103 16 -54 18 -57 43 -51 15 4 28 7 29 8 1 1 -9 40 -22 86 -36 123 -84 152 -147 89z" fill="#4decfd" stroke="#4decfd" />
<path d="M2945 867 c-42 -42 -53 -92 -30 -140 28 -60 122 -87 174 -50 23 15 23 17 6 29 -12 9 -32 12 -57 8 -43 -7 -78 14 -78 48 0 23 22 23 95 -2 32 -11 61 -20 65 -20 4 0 10 14 14 31 9 45 -15 93 -57 112 -56 27 -94 22 -132 -16z m132 -44 c19 -29 7 -32 -50 -16 -41 12 -46 17 -36 29 17 21 69 14 86 -13z" fill="#4decfd" stroke="#4decfd" />
<path d="M3536 879 c-28 -22 -36 -73 -16 -109 8 -15 4 -22 -26 -39 -129 -76 -10 -235 125 -168 28 14 31 13 50 -9 13 -15 32 -24 51 -24 37 0 37 4 4 48 l-27 34 27 22 c25 20 26 22 10 44 l-16 23 -25 -23 c-21 -19 -26 -21 -33 -8 -5 8 -15 24 -23 34 -13 18 -11 23 19 52 42 39 46 83 9 119 -31 32 -91 34 -129 4z m102 -56 c4 -27 -35 -58 -55 -41 -14 11 -18 50 -6 62 16 15 58 1 61 -21z m-39 -169 l21 -35 -26 -9 c-36 -14 -55 -12 -76 7 -25 23 -22 48 8 72 31 24 41 19 73 -35z" fill="#4decfd" stroke="#4decfd" />
<path d="M3957 863 c-2 -5 -2 -84 1 -176 l5 -168 31 3 31 3 -2 61 -3 61 53 6 c41 5 58 13 80 37 45 50 32 136 -24 166 -29 15 -164 20 -172 7z m141 -65 c7 -7 12 -24 12 -38 0 -35 -17 -50 -57 -50 -33 0 -33 0 -33 50 0 50 0 50 33 50 18 0 38 -5 45 -12z" fill="#4decfd" stroke="#4decfd" />
<path d="M1620 856 c0 -2 8 -10 18 -17 15 -13 16 -12 3 4 -13 16 -21 21 -21 13z" fill="#4decfd" stroke="#4decfd" />
<path d="M4469 777 c-21 -14 -39 -38 -48 -63 -13 -37 -12 -44 5 -80 38 -78 144 -95 205 -34 36 35 45 72 30 121 -23 75 -121 104 -192 56z m102 -38 c28 -15 42 -55 28 -82 -16 -29 -28 -37 -60 -37 -56 0 -83 77 -39 112 25 21 43 22 71 7z" fill="#4decfd" stroke="#4decfd" />
<path d="M4340 773 c-8 -3 -23 -12 -32 -21 -12 -10 -18 -11 -18 -4 0 7 -14 12 -31 12 l-31 0 6 -67 c13 -143 18 -164 33 -159 8 4 21 6 28 6 11 0 12 16 8 73 -6 82 7 107 53 107 22 0 25 4 22 27 -3 28 -13 35 -38 26z" fill="#4decfd" stroke="#4decfd" />
<path d="M3378 103 c7 -3 16 -2 19 1 4 3 -2 6 -13 5 -11 0 -14 -3 -6 -6z" fill="#4decfd" stroke="#4decfd" />
<path d="M3518 83 c7 -3 16 -2 19 1 4 3 -2 6 -13 5 -11 0 -14 -3 -6 -6z" fill="#4decfd" stroke="#4decfd" />
<path d="M4468 83 c7 -3 16 -2 19 1 4 3 -2 6 -13 5 -11 0 -14 -3 -6 -6z" fill="#4decfd" stroke="#4decfd" />
<path d="M3608 73 c7 -3 16 -2 19 1 4 3 -2 6 -13 5 -11 0 -14 -3 -6 -6z" fill="#4decfd" stroke="#4decfd" />
<path d="M4378 73 c6 -2 18 -2 25 0 6 3 1 5 -13 5 -14 0 -19 -2 -12 -5z" fill="#4decfd" stroke="#4decfd" />
<path d="M3258 63 c7 -3 16 -2 19 1 4 3 -2 6 -13 5 -11 0 -14 -3 -6 -6z" fill="#4decfd" stroke="#4decfd" />
<path d="M3723 63 c9 -2 23 -2 30 0 6 3 -1 5 -18 5 -16 0 -22 -2 -12 -5z" fill="#4decfd" stroke="#4decfd" />
<path d="M4253 63 c9 -2 23 -2 30 0 6 3 -1 5 -18 5 -16 0 -22 -2 -12 -5z" fill="#4decfd" stroke="#4decfd" />
<path d="M3953 53 c26 -2 68 -2 95 0 26 2 4 3 -48 3 -52 0 -74 -1 -47 -3z" fill="#4decfd" stroke="#4decfd" />
<path d="M3518 23 c7 -3 16 -2 19 1 4 3 -2 6 -13 5 -11 0 -14 -3 -6 -6z" fill="#4decfd" stroke="#4decfd" />
<path d="M4468 23 c7 -3 16 -2 19 1 4 3 -2 6 -13 5 -11 0 -14 -3 -6 -6z" fill="#4decfd" stroke="#4decfd" />
<path d="M3608 13 c6 -2 18 -2 25 0 6 3 1 5 -13 5 -14 0 -19 -2 -12 -5z" fill="#4decfd" stroke="#4decfd" />
<path d="M4368 13 c6 -2 18 -2 25 0 6 3 1 5 -13 5 -14 0 -19 -2 -12 -5z" fill="#4decfd" stroke="#4decfd" />
<path d="M3733 3 c9 -2 23 -2 30 0 6 3 -1 5 -18 5 -16 0 -22 -2 -12 -5z" fill="#4decfd" stroke="#4decfd" />
<path d="M4243 3 c9 -2 23 -2 30 0 6 3 -1 5 -18 5 -16 0 -22 -2 -12 -5z" fill="#4decfd" stroke="#4decfd" />
</g>
</svg>