<?xml version='1.0' encoding='utf8'?>
<svg xmlns="http://www.w3.org/2000/svg" version="1.0" width="500.000000pt" height="500.000000pt" viewBox="0 0 500.000000 500.000000" preserveAspectRatio="xMidYMid meet" fill="#ffffff" stroke="#ffffff">
<metadata fill="#ffffff" stroke="#ffffff">
Created by potrace 1.16, written by Peter Selinger 2001-2019
</metadata>
<g transform="translate(0.000000,500.000000) scale(0.100000,-0.100000)" fill="#ffffff" stroke="#ffffff">
</g>
<metadata fill="#ffffff" stroke="#ffffff">
Created by potrace 1.16, written by Peter Selinger 2001-2019
</metadata>
<g transform="translate(0.000000,500.000000) scale(0.100000,-0.100000)" fill="#ffffff" stroke="#ffffff">
</g>
<metadata fill="#006dfa" stroke="#006dfa">
Created by potrace 1.16, written by Peter Selinger 2001-2019
</metadata>
<g transform="translate(0.000000,500.000000) scale(0.100000,-0.100000)" fill="#006dfa" stroke="#006dfa">
<path d="M2315 4993 c-427 -36 -824 -170 -1173 -395 -562 -363 -960 -949 -1091 -1603 -37 -186 -46 -278 -46 -495 0 -217 9 -309 46 -495 196 -981 973 -1758 1954 -1954 186 -37 278 -46 495 -46 217 0 309 9 495 46 981 196 1758 973 1954 1954 37 186 46 278 46 495 0 217 -9 309 -46 495 -197 983 -970 1755 -1958 1955 -200 40 -490 59 -676 43z m370 -33 c958 -78 1770 -683 2120 -1580 248 -635 208 -1380 -107 -1999 -311 -610 -881 -1076 -1538 -1257 -436 -121 -883 -121 -1320 0 -825 227 -1489 890 -1716 1716 -121 436 -121 883 0 1320 227 825 890 1489 1716 1716 285 79 563 106 845 84z" fill="#006dfa" stroke="#006dfa" />
<path d="M2287 4753 l-58 -4 5 -32 c3 -18 8 -103 12 -189 l6 -158 59 0 58 0 3 47 3 47 28 -42 27 -42 70 0 c39 0 70 3 70 8 0 4 -16 31 -35 59 l-35 52 21 36 c31 51 23 134 -15 174 -28 29 -94 53 -138 49 -13 -1 -49 -3 -81 -5z m131 -132 c4 -27 -14 -51 -39 -51 -15 0 -19 7 -19 38 0 21 3 41 6 45 12 12 49 -11 52 -32z" fill="#006dfa" stroke="#006dfa" />
<path d="M2700 4728 c-185 -100 -119 -378 90 -378 150 0 246 156 178 290 -50 98 -173 138 -268 88z m145 -123 c31 -30 32 -73 4 -109 -45 -57 -139 -19 -139 56 0 39 40 78 80 78 19 0 40 -9 55 -25z" fill="#006dfa" stroke="#006dfa" />
<path d="M1933 4692 c-40 -9 -73 -19 -73 -22 0 -12 80 -363 83 -367 2 -1 29 3 61 9 61 13 61 13 40 91 -4 11 0 17 11 17 29 0 96 44 111 72 22 43 18 119 -9 159 -39 58 -97 69 -224 41z m123 -117 c8 -31 -1 -55 -20 -55 -18 0 -22 6 -31 48 -6 30 -5 32 19 32 19 0 27 -6 32 -25z" fill="#006dfa" stroke="#006dfa" />
<path d="M3046 4505 c-37 -98 -66 -178 -64 -179 9 -6 95 -36 104 -36 6 0 19 25 29 55 11 30 22 55 26 55 3 0 12 -27 19 -60 7 -33 15 -60 18 -60 2 0 26 16 52 35 26 19 50 35 53 35 3 0 -5 -27 -18 -61 l-24 -60 45 -20 c25 -10 51 -19 59 -19 10 0 107 234 139 335 5 17 -2 23 -40 37 l-47 17 -70 -50 c-79 -55 -77 -56 -97 31 -19 87 -20 91 -46 100 -73 28 -64 38 -138 -155z" fill="#006dfa" stroke="#006dfa" />
<path d="M1598 4579 c-58 -29 -58 -30 -58 -74 0 -25 -2 -45 -6 -45 -3 0 -21 11 -41 24 l-36 25 -59 -30 -59 -30 23 -18 c13 -9 58 -42 102 -72 70 -48 82 -62 113 -124 20 -38 37 -71 38 -73 4 -5 105 47 105 53 0 3 -16 38 -36 77 l-36 71 7 124 c4 67 6 123 4 123 -2 -1 -30 -14 -61 -31z" fill="#006dfa" stroke="#006dfa" />
<path d="M3579 4415 c-76 -24 -139 -111 -139 -190 0 -68 51 -150 114 -182 46 -24 132 -22 183 5 64 33 97 89 101 171 3 59 0 71 -27 113 -50 78 -143 111 -232 83z m100 -120 c31 -15 41 -33 41 -70 0 -37 -10 -55 -41 -71 -36 -18 -73 -10 -99 23 -28 36 -25 70 9 104 33 33 50 35 90 14z" fill="#006dfa" stroke="#006dfa" />
<path d="M1197 4348 c-30 -19 -46 -36 -43 -45 4 -10 181 -274 203 -302 3 -4 193 119 193 126 0 2 -12 21 -26 43 l-26 39 -44 -30 -43 -30 -28 39 c-16 21 -51 73 -78 115 -28 42 -52 77 -55 77 -3 0 -27 -14 -53 -32z" fill="#006dfa" stroke="#006dfa" />
<path d="M3926 4194 l-29 -35 23 -24 23 -24 -97 -103 -96 -103 44 -44 44 -44 97 102 97 101 28 -20 c16 -11 31 -20 34 -20 3 0 17 16 31 35 l27 34 -92 88 c-51 48 -95 89 -99 90 -3 1 -19 -14 -35 -33z" fill="#006dfa" stroke="#006dfa" />
<path d="M932 4129 l-43 -41 25 -31 c14 -18 72 -81 129 -142 l104 -109 87 79 87 79 -35 34 -34 35 -42 -33 -41 -32 -77 82 c-42 46 -83 91 -90 102 -18 24 -21 24 -70 -23z" fill="#006dfa" stroke="#006dfa" />
<path d="M774 3965 c-21 -26 -33 -49 -28 -54 5 -4 48 -38 95 -74 108 -83 114 -90 99 -116 -6 -12 -18 -21 -26 -21 -9 0 -62 36 -118 80 l-103 79 -30 -37 c-16 -20 -32 -42 -36 -49 -7 -11 132 -129 205 -173 42 -25 104 -26 145 0 40 24 82 86 89 132 11 62 -14 97 -135 191 -61 48 -113 87 -115 87 -3 0 -21 -20 -42 -45z" fill="#006dfa" stroke="#006dfa" />
<path d="M4052 3875 c-79 -62 -143 -117 -143 -122 1 -14 125 -172 136 -172 6 0 25 12 44 28 l34 28 -32 41 c-32 39 -34 62 -6 62 8 0 26 -16 41 -35 l26 -35 30 21 c41 30 44 44 14 80 -30 36 -32 45 -10 53 11 4 27 -6 49 -31 l32 -37 36 28 c20 16 37 30 37 33 0 6 -131 168 -139 170 -3 1 -70 -49 -149 -112z" fill="#006dfa" stroke="#006dfa" />
<path d="M4240 3625 c-85 -46 -156 -88 -158 -93 -4 -13 65 -133 96 -165 44 -46 78 -60 143 -55 41 3 69 12 98 31 94 62 107 150 41 285 -21 45 -45 82 -52 82 -7 0 -83 -39 -168 -85z m150 -118 c0 -65 -94 -103 -141 -56 -25 25 -22 29 61 73 69 37 80 35 80 -17z" fill="#006dfa" stroke="#006dfa" />
<path d="M518 3590 c-27 -49 -48 -93 -48 -98 0 -10 310 -182 326 -182 5 0 21 23 35 50 l27 50 -65 36 -64 36 26 43 25 44 -41 22 c-45 23 -44 23 -75 -33 -16 -30 -21 -33 -43 -19 -12 7 -9 17 13 55 l26 45 -39 21 c-22 11 -44 20 -48 20 -4 0 -29 -41 -55 -90z" fill="#006dfa" stroke="#006dfa" />
<path d="M1284 3622 c-215 -244 -339 -485 -406 -792 -19 -92 -22 -133 -22 -330 0 -197 3 -238 22 -330 144 -661 631 -1148 1292 -1292 92 -19 134 -22 330 -23 243 0 350 15 507 70 l68 24 -302 0 -303 1 0 773 0 772 -250 0 -250 0 0 -407 0 -408 -310 0 -310 0 0 1000 c0 550 -3 1000 -7 1000 -5 0 -31 -26 -59 -58z" fill="#006dfa" stroke="#006dfa" />
</g>
<metadata fill="#4eedff" stroke="#4eedff">
Created by potrace 1.16, written by Peter Selinger 2001-2019
</metadata>
<g transform="translate(0.000000,500.000000) scale(0.100000,-0.100000)" fill="#4eedff" stroke="#4eedff">
<path d="M2313 4993 c9 -2 23 -2 30 0 6 3 -1 5 -18 5 -16 0 -22 -2 -12 -5z" fill="#4eedff" stroke="#4eedff" />
<path d="M2663 4993 c9 -2 23 -2 30 0 6 3 -1 5 -18 5 -16 0 -22 -2 -12 -5z" fill="#4eedff" stroke="#4eedff" />
<path d="M2768 4983 c7 -3 16 -2 19 1 4 3 -2 6 -13 5 -11 0 -14 -3 -6 -6z" fill="#4eedff" stroke="#4eedff" />
<path d="M2443 4963 c31 -2 83 -2 115 0 31 2 5 3 -58 3 -63 0 -89 -1 -57 -3z" fill="#4eedff" stroke="#4eedff" />
<path d="M2258 4953 c6 -2 18 -2 25 0 6 3 1 5 -13 5 -14 0 -19 -2 -12 -5z" fill="#4eedff" stroke="#4eedff" />
<path d="M2718 4953 c6 -2 18 -2 25 0 6 3 1 5 -13 5 -14 0 -19 -2 -12 -5z" fill="#4eedff" stroke="#4eedff" />
<path d="M2288 4753 c12 -2 30 -2 40 0 9 3 -1 5 -23 4 -22 0 -30 -2 -17 -4z" fill="#4eedff" stroke="#4eedff" />
<path d="M2233 4680 c0 -25 2 -35 4 -22 2 12 2 32 0 45 -2 12 -4 2 -4 -23z" fill="#4eedff" stroke="#4eedff" />
<path d="M2542 4610 c0 -19 2 -27 5 -17 2 9 2 25 0 35 -3 9 -5 1 -5 -18z" fill="#4eedff" stroke="#4eedff" />
<path d="M2362 4595 c0 -16 2 -22 5 -12 2 9 2 23 0 30 -3 6 -5 -1 -5 -18z" fill="#4eedff" stroke="#4eedff" />
<path d="M2830 4616 c0 -2 8 -10 18 -17 15 -13 16 -12 3 4 -13 16 -21 21 -21 13z" fill="#4eedff" stroke="#4eedff" />
<path d="M2182 4560 c0 -19 2 -27 5 -17 2 9 2 25 0 35 -3 9 -5 1 -5 -18z" fill="#4eedff" stroke="#4eedff" />
<path d="M1528 4495 c-2 -19 0 -35 4 -35 4 0 8 16 8 35 0 19 -2 35 -4 35 -2 0 -6 -16 -8 -35z" fill="#4eedff" stroke="#4eedff" />
<path d="M2242 4500 c0 -14 2 -19 5 -12 2 6 2 18 0 25 -3 6 -5 1 -5 -13z" fill="#4eedff" stroke="#4eedff" />
<path d="M1652 4450 c0 -19 2 -27 5 -17 2 9 2 25 0 35 -3 9 -5 1 -5 -18z" fill="#4eedff" stroke="#4eedff" />
<path d="M2372 4395 c0 -16 2 -22 5 -12 2 9 2 23 0 30 -3 6 -5 -1 -5 -18z" fill="#4eedff" stroke="#4eedff" />
<path d="M2630 4416 c0 -2 8 -10 18 -17 15 -13 16 -12 3 4 -13 16 -21 21 -21 13z" fill="#4eedff" stroke="#4eedff" />
<path d="M2929 4403 c-13 -16 -12 -17 4 -4 9 7 17 15 17 17 0 8 -8 3 -21 -13z" fill="#4eedff" stroke="#4eedff" />
<path d="M839 4373 c-13 -16 -12 -17 4 -4 9 7 17 15 17 17 0 8 -8 3 -21 -13z" fill="#4eedff" stroke="#4eedff" />
<path d="M2428 4378 c6 -6 18 -8 28 -6 14 3 12 5 -9 10 -19 3 -25 2 -19 -4z" fill="#4eedff" stroke="#4eedff" />
<path d="M3494 4368 l-19 -23 23 19 c21 18 27 26 19 26 -2 0 -12 -10 -23 -22z" fill="#4eedff" stroke="#4eedff" />
<path d="M4140 4386 c0 -2 8 -10 18 -17 15 -13 16 -12 3 4 -13 16 -21 21 -21 13z" fill="#4eedff" stroke="#4eedff" />
<path d="M2258 4363 c7 -3 16 -2 19 1 4 3 -2 6 -13 5 -11 0 -14 -3 -6 -6z" fill="#4eedff" stroke="#4eedff" />
<path d="M859 4343 c-13 -16 -12 -17 4 -4 9 7 17 15 17 17 0 8 -8 3 -21 -13z" fill="#4eedff" stroke="#4eedff" />
<path d="M4120 4356 c0 -2 8 -10 18 -17 15 -13 16 -12 3 4 -13 16 -21 21 -21 13z" fill="#4eedff" stroke="#4eedff" />
<path d="M2778 4343 c6 -2 18 -2 25 0 6 3 1 5 -13 5 -14 0 -19 -2 -12 -5z" fill="#4eedff" stroke="#4eedff" />
<path d="M3628 4303 c6 -2 18 -2 25 0 6 3 1 5 -13 5 -14 0 -19 -2 -12 -5z" fill="#4eedff" stroke="#4eedff" />
<path d="M3842 4230 c0 -19 2 -27 5 -17 2 9 2 25 0 35 -3 9 -5 1 -5 -18z" fill="#4eedff" stroke="#4eedff" />
<path d="M3916 4191 l-29 -30 27 -31 c14 -17 26 -28 26 -24 0 4 -10 18 -22 31 l-22 23 29 30 c16 17 26 30 24 30 -3 0 -18 -13 -33 -29z" fill="#4eedff" stroke="#4eedff" />
<path d="M619 4153 c-13 -16 -12 -17 4 -4 9 7 17 15 17 17 0 8 -8 3 -21 -13z" fill="#4eedff" stroke="#4eedff" />
<path d="M4360 4166 c0 -2 8 -10 18 -17 15 -13 16 -12 3 4 -13 16 -21 21 -21 13z" fill="#4eedff" stroke="#4eedff" />
<path d="M924 4128 l-29 -33 33 29 c30 28 37 36 29 36 -2 0 -16 -15 -33 -32z" fill="#4eedff" stroke="#4eedff" />
<path d="M2365 4149 c-352 -27 -710 -182 -972 -419 l-50 -45 569 3 568 2 0 -250 0 -250 -256 -2 -256 -3 -1 -103 -2 -102 556 0 c306 0 613 -5 682 -10 430 -35 687 -226 753 -560 23 -114 15 -305 -16 -405 -47 -151 -153 -287 -284 -364 -115 -69 -284 -114 -471 -127 l-95 -7 0 -278 0 -278 31 11 c17 6 72 32 123 57 395 202 686 539 827 961 110 330 110 710 0 1040 -243 726 -943 1189 -1706 1129z" fill="#4eedff" stroke="#4eedff" />
<path d="M4075 4120 c21 -22 41 -40 44 -40 3 0 -13 18 -34 40 -21 22 -41 40 -44 40 -3 0 13 -18 34 -40z" fill="#4eedff" stroke="#4eedff" />
<path d="M649 4133 c-13 -16 -12 -17 4 -4 9 7 17 15 17 17 0 8 -8 3 -21 -13z" fill="#4eedff" stroke="#4eedff" />
<path d="M3638 4143 c7 -3 16 -2 19 1 4 3 -2 6 -13 5 -11 0 -14 -3 -6 -6z" fill="#4eedff" stroke="#4eedff" />
<path d="M4330 4146 c0 -2 8 -10 18 -17 15 -13 16 -12 3 4 -13 16 -21 21 -21 13z" fill="#4eedff" stroke="#4eedff" />
<path d="M1030 4115 c13 -14 26 -25 28 -25 3 0 -5 11 -18 25 -13 14 -26 25 -28 25 -3 0 5 -11 18 -25z" fill="#4eedff" stroke="#4eedff" />
<path d="M3495 4080 c10 -11 20 -20 23 -20 3 0 -3 9 -13 20 -10 11 -20 20 -23 20 -3 0 3 -9 13 -20z" fill="#4eedff" stroke="#4eedff" />
<path d="M4139 4033 c-13 -16 -12 -17 4 -4 9 7 17 15 17 17 0 8 -8 3 -21 -13z" fill="#4eedff" stroke="#4eedff" />
<path d="M1224 4018 l-19 -23 25 20 c14 11 27 21 29 22 2 2 0 3 -6 3 -5 0 -18 -10 -29 -22z" fill="#4eedff" stroke="#4eedff" />
<path d="M799 4003 c-13 -16 -12 -17 4 -4 9 7 17 15 17 17 0 8 -8 3 -21 -13z" fill="#4eedff" stroke="#4eedff" />
<path d="M1145 3990 c10 -11 20 -20 23 -20 3 0 -3 9 -13 20 -10 11 -20 20 -23 20 -3 0 3 -9 13 -20z" fill="#4eedff" stroke="#4eedff" />
<path d="M4060 3996 c0 -2 8 -10 18 -17 15 -13 16 -12 3 4 -13 16 -21 21 -21 13z" fill="#4eedff" stroke="#4eedff" />
<path d="M1010 3945 c13 -14 26 -25 28 -25 3 0 -5 11 -18 25 -13 14 -26 25 -28 25 -3 0 5 -11 18 -25z" fill="#4eedff" stroke="#4eedff" />
<path d="M3774 3938 l-29 -33 33 29 c30 28 37 36 29 36 -2 0 -16 -15 -33 -32z" fill="#4eedff" stroke="#4eedff" />
<path d="M3905 3888 l-40 -43 43 40 c39 36 47 45 39 45 -2 0 -21 -19 -42 -42z" fill="#4eedff" stroke="#4eedff" />
<path d="M1224 3878 l-19 -23 23 19 c21 18 27 26 19 26 -2 0 -12 -10 -23 -22z" fill="#4eedff" stroke="#4eedff" />
<path d="M3780 3865 c19 -19 36 -35 39 -35 3 0 -10 16 -29 35 -19 19 -36 35 -39 35 -3 0 10 -16 29 -35z" fill="#4eedff" stroke="#4eedff" />
<path d="M1120 3826 c0 -2 8 -10 18 -17 15 -13 16 -12 3 4 -13 16 -21 21 -21 13z" fill="#4eedff" stroke="#4eedff" />
<path d="M4240 3776 c0 -2 8 -10 18 -17 15 -13 16 -12 3 4 -13 16 -21 21 -21 13z" fill="#4eedff" stroke="#4eedff" />
<path d="M4216 3723 c-6 -14 -5 -15 5 -6 7 7 10 15 7 18 -3 3 -9 -2 -12 -12z" fill="#4eedff" stroke="#4eedff" />
<path d="M1284 3628 l-19 -23 23 19 c21 18 27 26 19 26 -2 0 -12 -10 -23 -22z" fill="#4eedff" stroke="#4eedff" />
<path d="M893 3573 c9 -2 23 -2 30 0 6 3 -1 5 -18 5 -16 0 -22 -2 -12 -5z" fill="#4eedff" stroke="#4eedff" />
<path d="M4502 3490 c0 -14 2 -19 5 -12 2 6 2 18 0 25 -3 6 -5 1 -5 -13z" fill="#4eedff" stroke="#4eedff" />
<path d="M4359 3453 c-13 -16 -12 -17 4 -4 9 7 17 15 17 17 0 8 -8 3 -21 -13z" fill="#4eedff" stroke="#4eedff" />
<path d="M4293 3303 c9 -2 23 -2 30 0 6 3 -1 5 -18 5 -16 0 -22 -2 -12 -5z" fill="#4eedff" stroke="#4eedff" />
<path d="M42 2730 c0 -14 2 -19 5 -12 2 6 2 18 0 25 -3 6 -5 1 -5 -13z" fill="#4eedff" stroke="#4eedff" />
<path d="M4952 2730 c0 -14 2 -19 5 -12 2 6 2 18 0 25 -3 6 -5 1 -5 -13z" fill="#4eedff" stroke="#4eedff" />
<path d="M2 2675 c0 -16 2 -22 5 -12 2 9 2 23 0 30 -3 6 -5 -1 -5 -18z" fill="#4eedff" stroke="#4eedff" />
<path d="M851 2684 c0 -11 3 -14 6 -6 3 7 2 16 -1 19 -3 4 -6 -2 -5 -13z" fill="#4eedff" stroke="#4eedff" />
<path d="M4992 2675 c0 -16 2 -22 5 -12 2 9 2 23 0 30 -3 6 -5 -1 -5 -18z" fill="#4eedff" stroke="#4eedff" />
<path d="M34 2500 c0 -63 1 -89 3 -57 2 31 2 83 0 115 -2 31 -3 5 -3 -58z" fill="#4eedff" stroke="#4eedff" />
<path d="M4964 2500 c0 -63 1 -89 3 -57 2 31 2 83 0 115 -2 31 -3 5 -3 -58z" fill="#4eedff" stroke="#4eedff" />
<path d="M844 2500 c0 -52 1 -74 3 -47 2 26 2 68 0 95 -2 26 -3 4 -3 -48z" fill="#4eedff" stroke="#4eedff" />
<path d="M2098 2493 c67 -2 177 -2 245 0 67 1 12 3 -123 3 -135 0 -190 -2 -122 -3z" fill="#4eedff" stroke="#4eedff" />
<path d="M1965 2085 c0 -225 1 -319 2 -208 2 111 2 295 0 410 -1 114 -2 24 -2 -202z" fill="#4eedff" stroke="#4eedff" />
<path d="M2475 1720 c0 -426 1 -601 2 -387 2 213 2 561 0 775 -1 213 -2 38 -2 -388z" fill="#4eedff" stroke="#4eedff" />
<path d="M3090 2246 l0 -216 44 0 c50 0 121 23 149 48 35 31 57 93 56 162 -1 139 -56 200 -193 216 l-56 7 0 -217z" fill="#4eedff" stroke="#4eedff" />
<path d="M2 2325 c0 -16 2 -22 5 -12 2 9 2 23 0 30 -3 6 -5 -1 -5 -18z" fill="#4eedff" stroke="#4eedff" />
<path d="M4992 2325 c0 -16 2 -22 5 -12 2 9 2 23 0 30 -3 6 -5 -1 -5 -18z" fill="#4eedff" stroke="#4eedff" />
<path d="M851 2314 c0 -11 3 -14 6 -6 3 7 2 16 -1 19 -3 4 -6 -2 -5 -13z" fill="#4eedff" stroke="#4eedff" />
<path d="M42 2270 c0 -14 2 -19 5 -12 2 6 2 18 0 25 -3 6 -5 1 -5 -13z" fill="#4eedff" stroke="#4eedff" />
<path d="M4952 2270 c0 -14 2 -19 5 -12 2 6 2 18 0 25 -3 6 -5 1 -5 -13z" fill="#4eedff" stroke="#4eedff" />
<path d="M4459 2229 c-8 -16 -8 -28 0 -45 15 -33 58 -33 73 1 16 36 41 33 33 -4 -3 -16 -2 -32 4 -35 13 -8 31 25 31 56 0 54 -60 67 -85 18 -17 -32 -40 -32 -30 0 9 27 -12 34 -26 9z" fill="#4eedff" stroke="#4eedff" />
<path d="M478 2153 c-76 -14 -78 -16 -78 -44 0 -44 25 -96 50 -104 22 -7 70 17 70 36 0 6 9 8 20 4 51 -16 85 23 75 86 -8 46 -12 46 -137 22z m102 -49 c0 -21 -4 -25 -22 -22 -28 4 -36 35 -11 41 32 8 33 7 33 -19z m-82 -21 c-4 -38 -44 -45 -57 -11 -10 26 1 38 37 38 20 0 23 -4 20 -27z" fill="#4eedff" stroke="#4eedff" />
<path d="M4448 2128 c-3 -7 -15 -13 -29 -13 -14 0 -25 -7 -27 -17 -2 -12 3 -18 16 -18 10 0 22 -3 26 -7 4 -5 24 -8 44 -9 20 0 52 -4 70 -8 28 -7 32 -5 32 12 0 20 -24 32 -68 32 -15 0 -26 7 -29 20 -6 22 -29 27 -35 8z" fill="#4eedff" stroke="#4eedff" />
<path d="M4425 2030 c-17 -27 -8 -74 19 -97 33 -28 56 -29 90 -2 29 23 36 73 11 83 -11 4 -15 -1 -15 -18 0 -35 -25 -52 -56 -37 -20 9 -25 17 -22 43 3 31 -14 49 -27 28z" fill="#4eedff" stroke="#4eedff" />
<path d="M487 1965 c-57 -16 -59 -17 -52 -37 5 -12 14 -13 52 -5 42 10 47 9 63 -11 10 -12 23 -22 29 -22 14 0 14 27 1 35 -5 3 -10 17 -10 31 0 28 -11 29 -83 9z" fill="#4eedff" stroke="#4eedff" />
<path d="M4396 1893 c-16 -16 -2 -33 37 -45 30 -11 43 -21 45 -36 5 -30 -16 -35 -66 -18 -38 14 -43 14 -49 0 -8 -21 3 -29 60 -44 44 -12 50 -11 67 6 26 25 35 74 18 97 -14 18 -102 50 -112 40z" fill="#4eedff" stroke="#4eedff" />
<path d="M507 1848 c-9 -7 -20 -24 -25 -38 -10 -26 1 -70 17 -70 5 0 7 -8 4 -19 -8 -30 10 -32 76 -10 57 19 75 39 51 54 -5 3 -10 19 -10 35 0 49 -71 79 -113 48z m67 -34 c9 -3 16 -16 16 -28 0 -47 -53 -63 -72 -21 -18 39 12 66 56 49z" fill="#4eedff" stroke="#4eedff" />
<path d="M4246 1754 c-4 -9 -5 -18 -4 -18 2 -1 22 -10 46 -21 46 -20 50 -26 27 -45 -41 -34 4 -110 66 -110 31 0 73 44 64 68 -3 8 3 20 12 28 12 8 15 16 8 22 -8 7 -136 64 -198 88 -8 3 -17 -3 -21 -12z m158 -90 c31 -30 8 -69 -36 -62 -26 3 -37 41 -18 64 16 18 35 18 54 -2z" fill="#4eedff" stroke="#4eedff" />
<path d="M593 1669 c-47 -21 -61 -32 -57 -43 8 -20 15 -20 58 0 39 19 66 13 66 -14 0 -11 -16 -26 -45 -40 -31 -15 -43 -26 -39 -37 7 -18 6 -18 51 0 72 30 91 67 54 104 -11 11 -17 22 -14 24 3 3 1 12 -4 20 -7 12 -18 10 -70 -14z" fill="#4eedff" stroke="#4eedff" />
<path d="M4263 1540 c-47 -19 -61 -101 -22 -132 22 -18 55 -23 84 -12 19 8 45 55 45 82 0 46 -61 81 -107 62z m57 -44 c19 -23 8 -61 -18 -64 -44 -7 -67 32 -36 62 19 20 38 20 54 2z" fill="#4eedff" stroke="#4eedff" />
<path d="M656 1499 c-33 -26 -37 -82 -6 -101 11 -7 20 -20 20 -30 0 -9 3 -19 8 -21 5 -4 185 93 201 109 2 2 1 10 -3 19 -5 15 -12 14 -52 -9 -26 -14 -48 -26 -50 -26 -2 0 -4 11 -4 24 0 28 -33 56 -66 56 -12 0 -33 -9 -48 -21z m84 -38 c18 -36 -11 -68 -50 -56 -42 13 -29 75 15 75 14 0 29 -8 35 -19z" fill="#4eedff" stroke="#4eedff" />
<path d="M4177 1413 c-4 -3 -7 -13 -7 -20 0 -8 -7 -21 -15 -29 -8 -9 -15 -18 -15 -22 1 -14 102 -73 116 -68 23 9 16 22 -26 50 -41 27 -48 44 -30 62 8 8 7 14 -3 22 -8 7 -17 9 -20 5z" fill="#4eedff" stroke="#4eedff" />
<path d="M1275 1380 c10 -11 20 -20 23 -20 3 0 -3 9 -13 20 -10 11 -20 20 -23 20 -3 0 3 -9 13 -20z" fill="#4eedff" stroke="#4eedff" />
<path d="M775 1349 c-61 -35 -60 -104 2 -137 27 -15 33 -15 33 0 0 7 -12 22 -27 34 -17 14 -24 26 -20 37 10 25 19 21 51 -25 l29 -41 19 23 c23 28 23 58 0 87 -21 27 -60 37 -87 22z m73 -56 c4 -31 -12 -29 -33 3 -16 25 -16 26 7 22 15 -2 24 -11 26 -25z" fill="#4eedff" stroke="#4eedff" />
<path d="M4014 1303 c-19 -21 -33 -43 -32 -50 2 -7 39 -40 83 -73 72 -54 81 -59 92 -44 12 16 4 26 -45 60 -2 1 4 16 12 33 23 43 20 67 -10 90 -38 30 -62 26 -100 -16z m86 -36 c0 -7 -4 -19 -10 -27 -7 -12 -12 -12 -34 0 -30 16 -32 23 -10 44 12 12 20 13 35 6 10 -6 19 -16 19 -23z" fill="#4eedff" stroke="#4eedff" />
<path d="M1375 1280 c10 -11 20 -20 23 -20 3 0 -3 9 -13 20 -10 11 -20 20 -23 20 -3 0 3 -9 13 -20z" fill="#4eedff" stroke="#4eedff" />
<path d="M878 1204 c-45 -24 -51 -110 -8 -121 10 -3 20 -13 23 -24 3 -10 10 -19 15 -19 21 0 181 142 175 156 -8 20 -18 18 -56 -16 -39 -34 -47 -36 -47 -16 0 16 -46 56 -64 56 -6 -1 -23 -7 -38 -16z m68 -45 c23 -25 9 -53 -29 -57 -38 -5 -55 30 -27 58 25 25 32 25 56 -1z" fill="#4eedff" stroke="#4eedff" />
<path d="M3870 1165 c-9 -11 4 -29 71 -92 45 -43 86 -78 93 -78 31 0 7 38 -68 107 -69 64 -86 75 -96 63z" fill="#4eedff" stroke="#4eedff" />
<path d="M3880 1030 c-6 -11 -17 -20 -25 -20 -19 0 -35 -32 -35 -69 0 -33 39 -71 71 -71 11 0 39 19 64 42 l45 42 -47 48 c-26 26 -51 48 -55 48 -4 0 -12 -9 -18 -20z m50 -59 c5 -11 7 -26 4 -35 -8 -21 -42 -30 -59 -16 -15 13 -20 51 -8 63 13 14 53 6 63 -12z" fill="#4eedff" stroke="#4eedff" />
<path d="M1130 1013 c-30 -14 -75 -34 -99 -44 -40 -18 -43 -21 -30 -35 11 -11 22 -12 40 -6 37 14 84 -29 84 -77 0 -65 25 -41 61 58 52 143 47 152 -56 104z m30 -63 c-14 -35 -17 -36 -42 -13 -18 16 -18 18 14 34 18 9 35 15 37 13 2 -2 -2 -17 -9 -34z" fill="#4eedff" stroke="#4eedff" />
<path d="M3716 894 c-9 -8 -16 -20 -16 -25 0 -6 -4 -8 -9 -5 -5 3 -14 -1 -21 -9 -10 -12 -5 -24 27 -64 21 -28 43 -50 50 -51 24 0 23 21 -1 53 -30 39 -33 65 -9 74 11 4 26 -5 48 -32 25 -29 36 -36 49 -28 15 8 12 15 -20 56 -39 50 -70 60 -98 31z" fill="#4eedff" stroke="#4eedff" />
<path d="M1197 808 c-52 -72 -65 -108 -39 -108 5 0 20 15 32 33 l23 33 28 -28 c15 -15 35 -28 44 -28 26 0 75 55 75 84 0 26 -31 66 -51 66 -6 0 -17 7 -25 15 -9 8 -18 15 -22 14 -4 0 -33 -36 -65 -81z m111 10 c32 -32 -8 -80 -48 -58 -21 11 -25 27 -14 54 7 19 45 21 62 4z" fill="#4eedff" stroke="#4eedff" />
<path d="M640 876 c0 -2 8 -10 18 -17 15 -13 16 -12 3 4 -13 16 -21 21 -21 13z" fill="#4eedff" stroke="#4eedff" />
<path d="M4339 863 c-13 -16 -12 -17 4 -4 16 13 21 21 13 21 -2 0 -10 -8 -17 -17z" fill="#4eedff" stroke="#4eedff" />
<path d="M610 856 c0 -2 8 -10 18 -17 15 -13 16 -12 3 4 -13 16 -21 21 -21 13z" fill="#4eedff" stroke="#4eedff" />
<path d="M2308 853 c7 -3 16 -2 19 1 4 3 -2 6 -13 5 -11 0 -14 -3 -6 -6z" fill="#4eedff" stroke="#4eedff" />
<path d="M2678 853 c6 -2 18 -2 25 0 6 3 1 5 -13 5 -14 0 -19 -2 -12 -5z" fill="#4eedff" stroke="#4eedff" />
<path d="M4369 843 c-13 -16 -12 -17 4 -4 16 13 21 21 13 21 -2 0 -10 -8 -17 -17z" fill="#4eedff" stroke="#4eedff" />
<path d="M2453 843 c26 -2 68 -2 95 0 26 2 4 3 -48 3 -52 0 -74 -1 -47 -3z" fill="#4eedff" stroke="#4eedff" />
<path d="M3549 771 c-16 -16 -29 -39 -29 -50 0 -32 42 -73 74 -73 70 0 111 79 65 128 -31 33 -73 31 -110 -5z m89 -42 c6 -49 -58 -65 -73 -18 -9 27 13 51 44 47 20 -2 27 -9 29 -29z" fill="#4eedff" stroke="#4eedff" />
<path d="M3403 774 c-8 -21 13 -42 28 -27 13 13 5 43 -11 43 -6 0 -13 -7 -17 -16z" fill="#4eedff" stroke="#4eedff" />
<path d="M1357 693 c-49 -78 -53 -89 -39 -101 14 -10 19 -7 36 20 11 18 21 35 23 37 2 3 10 -5 19 -17 22 -32 76 -30 103 4 38 48 17 114 -36 114 -12 0 -23 7 -27 15 -10 28 -25 15 -79 -72z m108 24 c13 -10 16 -21 11 -40 -5 -21 -12 -27 -35 -27 -40 0 -54 35 -25 64 19 19 25 20 49 3z" fill="#4eedff" stroke="#4eedff" />
<path d="M3347 713 c-3 -7 -2 -33 2 -75 1 -5 7 -8 14 -8 7 0 23 -20 35 -45 15 -31 26 -43 37 -39 19 8 19 5 -7 59 -16 33 -19 48 -11 53 7 5 9 13 4 21 -5 7 -14 11 -19 7 -6 -4 -16 3 -22 14 -11 20 -26 26 -33 13z" fill="#4eedff" stroke="#4eedff" />
<path d="M3444 707 c-8 -21 55 -127 71 -120 21 8 19 19 -16 79 -31 54 -45 65 -55 41z" fill="#4eedff" stroke="#4eedff" />
<path d="M850 666 c0 -2 8 -10 18 -17 15 -13 16 -12 3 4 -13 16 -21 21 -21 13z" fill="#4eedff" stroke="#4eedff" />
<path d="M1552 647 c-12 -13 -22 -34 -22 -48 0 -33 27 -69 51 -69 11 0 30 -7 43 -15 22 -15 23 -13 50 44 27 56 28 88 2 78 -7 -3 -18 4 -24 14 -17 28 -73 25 -100 -4z m82 -23 c22 -21 20 -40 -6 -58 -15 -11 -26 -12 -40 -5 -23 12 -24 55 0 68 23 14 28 14 46 -5z" fill="#4eedff" stroke="#4eedff" />
<path d="M4129 653 c-13 -16 -12 -17 4 -4 16 13 21 21 13 21 -2 0 -10 -8 -17 -17z" fill="#4eedff" stroke="#4eedff" />
<path d="M830 636 c0 -2 8 -10 18 -17 15 -13 16 -12 3 4 -13 16 -21 21 -21 13z" fill="#4eedff" stroke="#4eedff" />
<path d="M4149 623 c-13 -16 -12 -17 4 -4 16 13 21 21 13 21 -2 0 -10 -8 -17 -17z" fill="#4eedff" stroke="#4eedff" />
<path d="M3245 618 c-49 -26 -58 -69 -24 -112 28 -35 80 -36 114 -1 63 62 -12 156 -90 113z m75 -63 c0 -31 -32 -50 -60 -35 -30 16 -24 60 10 72 24 8 50 -11 50 -37z" fill="#4eedff" stroke="#4eedff" />
<path d="M2005 508 c-20 -88 -23 -113 -13 -119 19 -12 23 -4 51 111 26 106 26 120 2 120 -9 0 -22 -37 -40 -112z" fill="#4eedff" stroke="#4eedff" />
<path d="M1733 593 c-3 -10 -14 -39 -24 -65 -17 -43 -17 -47 -1 -53 9 -3 18 -3 19 2 2 4 11 24 21 43 13 27 23 35 44 35 15 -1 30 5 33 13 5 15 -18 27 -39 19 -8 -3 -17 1 -20 9 -7 19 -25 18 -33 -3z" fill="#4eedff" stroke="#4eedff" />
<path d="M3083 553 c-11 -11 -29 -17 -47 -15 -16 2 -33 -1 -39 -7 -6 -6 -21 -11 -34 -11 -27 0 -27 3 -7 -68 19 -66 24 -74 42 -63 11 6 11 17 1 55 -10 40 -9 50 2 57 23 14 33 5 48 -44 11 -35 20 -47 34 -47 16 0 18 4 11 28 -4 15 -8 41 -8 57 -1 23 3 30 19 30 14 0 22 -11 32 -44 15 -52 16 -53 35 -46 14 6 14 12 1 58 -21 74 -54 96 -90 60z" fill="#4eedff" stroke="#4eedff" />
<path d="M1838 543 c-24 -27 -30 -58 -17 -86 19 -42 85 -61 109 -32 14 17 1 25 -39 22 -23 -2 -51 26 -39 39 4 3 28 -1 54 -10 26 -9 49 -16 51 -16 13 0 -1 64 -17 80 -25 25 -81 27 -102 3z m86 -28 c6 -16 -10 -20 -38 -9 -24 9 -19 24 8 24 13 0 26 -7 30 -15z" fill="#4eedff" stroke="#4eedff" />
<path d="M2200 539 c-7 -11 -9 -32 -5 -46 4 -19 0 -29 -20 -44 -67 -54 9 -139 87 -98 17 9 23 8 30 -5 5 -9 20 -16 34 -16 24 0 24 1 8 25 -13 21 -14 28 -4 40 18 22 -2 44 -23 26 -12 -9 -18 -6 -30 13 -14 21 -14 25 -2 30 9 3 20 17 27 31 9 21 8 28 -7 45 -25 28 -81 27 -95 -1z m70 -28 c0 -24 -26 -35 -34 -15 -10 26 -7 34 14 34 13 0 20 -7 20 -19z m-26 -93 c19 -26 13 -38 -20 -38 -29 0 -42 24 -24 45 17 20 26 19 44 -7z" fill="#4eedff" stroke="#4eedff" />
<path d="M2470 481 c0 -103 10 -151 32 -151 17 0 19 6 16 38 -3 35 -1 37 27 40 41 5 65 29 65 67 0 46 -26 65 -88 65 l-52 0 0 -59z m84 23 c20 -8 21 -38 1 -54 -23 -19 -45 -4 -45 30 0 30 11 37 44 24z" fill="#4eedff" stroke="#4eedff" />
<path d="M2786 479 c-70 -55 7 -160 87 -117 50 26 60 69 26 112 -26 33 -75 35 -113 5z m78 -25 c20 -19 20 -38 2 -54 -23 -19 -61 -8 -64 18 -7 44 32 67 62 36z" fill="#4eedff" stroke="#4eedff" />
<path d="M2702 474 c-12 -8 -22 -11 -22 -6 0 6 -9 8 -19 5 -17 -4 -19 -12 -14 -61 6 -74 9 -83 27 -76 10 4 16 23 18 57 3 45 6 52 26 55 12 2 22 10 22 17 0 22 -15 25 -38 9z" fill="#4eedff" stroke="#4eedff" />
<path d="M2258 43 c6 -2 18 -2 25 0 6 3 1 5 -13 5 -14 0 -19 -2 -12 -5z" fill="#4eedff" stroke="#4eedff" />
<path d="M2718 43 c6 -2 18 -2 25 0 6 3 1 5 -13 5 -14 0 -19 -2 -12 -5z" fill="#4eedff" stroke="#4eedff" />
<path d="M2443 33 c31 -2 83 -2 115 0 31 2 5 3 -58 3 -63 0 -89 -1 -57 -3z" fill="#4eedff" stroke="#4eedff" />
<path d="M2313 3 c9 -2 23 -2 30 0 6 3 -1 5 -18 5 -16 0 -22 -2 -12 -5z" fill="#4eedff" stroke="#4eedff" />
<path d="M2663 3 c9 -2 23 -2 30 0 6 3 -1 5 -18 5 -16 0 -22 -2 -12 -5z" fill="#4eedff" stroke="#4eedff" />
</g>
</svg>